<?xml version="1.0" encoding="UTF-8"?>
<svg xmlns="http://www.w3.org/2000/svg" xmlns:xlink="http://www.w3.org/1999/xlink" width="854" height="480" viewBox="0 0 854 480">
<defs>
<g>
<g id="glyph-0-0">
<path d="M 1.796875 -2.625 L 1.796875 -1.9375 L 1.6875 -1.9375 L 1.53125 -2.234375 C 1.4375 -2.234375 1.328125 -2.21875 1.203125 -2.1875 C 1.078125 -2.164062 0.972656 -2.132812 0.890625 -2.09375 L 0.890625 -0.1875 L 1.328125 -0.125 L 1.328125 0 L 0.109375 0 L 0.109375 -0.125 L 0.4375 -0.1875 L 0.4375 -2.359375 L 0.109375 -2.4375 L 0.109375 -2.546875 L 0.859375 -2.546875 L 0.875 -2.234375 C 0.988281 -2.328125 1.132812 -2.414062 1.3125 -2.5 C 1.5 -2.582031 1.648438 -2.625 1.765625 -2.625 Z "/>
</g>
<g id="glyph-0-1">
<path d="M 2.5625 -1.296875 C 2.5625 -0.398438 2.164062 0.046875 1.375 0.046875 C 0.988281 0.046875 0.695312 -0.0664062 0.5 -0.296875 C 0.3125 -0.523438 0.21875 -0.859375 0.21875 -1.296875 C 0.21875 -1.722656 0.3125 -2.050781 0.5 -2.28125 C 0.695312 -2.507812 0.992188 -2.625 1.390625 -2.625 C 1.785156 -2.625 2.078125 -2.507812 2.265625 -2.28125 C 2.460938 -2.0625 2.5625 -1.734375 2.5625 -1.296875 Z M 2.078125 -1.296875 C 2.078125 -1.679688 2.019531 -1.960938 1.90625 -2.140625 C 1.789062 -2.316406 1.613281 -2.40625 1.375 -2.40625 C 1.132812 -2.40625 0.960938 -2.320312 0.859375 -2.15625 C 0.753906 -1.988281 0.703125 -1.703125 0.703125 -1.296875 C 0.703125 -0.878906 0.753906 -0.582031 0.859375 -0.40625 C 0.972656 -0.238281 1.144531 -0.15625 1.375 -0.15625 C 1.613281 -0.15625 1.789062 -0.242188 1.90625 -0.421875 C 2.019531 -0.597656 2.078125 -0.890625 2.078125 -1.296875 Z "/>
</g>
<g id="glyph-0-2">
<path d="M 0.90625 0.046875 C 0.726562 0.046875 0.597656 0 0.515625 -0.09375 C 0.429688 -0.195312 0.390625 -0.34375 0.390625 -0.53125 L 0.390625 -2.328125 L 0.046875 -2.328125 L 0.046875 -2.453125 L 0.390625 -2.546875 L 0.671875 -3.125 L 0.84375 -3.125 L 0.84375 -2.546875 L 1.421875 -2.546875 L 1.421875 -2.328125 L 0.84375 -2.328125 L 0.84375 -0.578125 C 0.84375 -0.460938 0.867188 -0.375 0.921875 -0.3125 C 0.972656 -0.257812 1.039062 -0.234375 1.125 -0.234375 C 1.226562 -0.234375 1.359375 -0.242188 1.515625 -0.265625 L 1.515625 -0.09375 C 1.453125 -0.0507812 1.359375 -0.0195312 1.234375 0 C 1.117188 0.03125 1.007812 0.046875 0.90625 0.046875 Z "/>
</g>
</g>
</defs>
<g fill="rgb(100%, 100%, 100%)" fill-opacity="1">
<use xlink:href="#glyph-0-0" x="30" y="24.951172"/>
<use xlink:href="#glyph-0-1" x="32" y="24.951172"/>
<use xlink:href="#glyph-0-1" x="35" y="24.951172"/>
<use xlink:href="#glyph-0-2" x="38" y="24.951172"/>
</g>
</svg>
