<?xml version="1.0" encoding="utf-8" standalone="no"?>
<!DOCTYPE svg PUBLIC "-//W3C//DTD SVG 1.1//EN"
  "http://www.w3.org/Graphics/SVG/1.1/DTD/svg11.dtd">
<svg xmlns:xlink="http://www.w3.org/1999/xlink" width="504pt" height="324pt" viewBox="0 0 504 324" xmlns="http://www.w3.org/2000/svg" version="1.1">
 <metadata>
  <rdf:RDF xmlns:dc="http://purl.org/dc/elements/1.1/" xmlns:cc="http://creativecommons.org/ns#" xmlns:rdf="http://www.w3.org/1999/02/22-rdf-syntax-ns#">
   <cc:Work>
    <dc:type rdf:resource="http://purl.org/dc/dcmitype/StillImage"/>
    <dc:date>2026-09-10T14:12:39.928000</dc:date>
    <dc:format>image/svg+xml</dc:format>
    <dc:creator>
     <cc:Agent>
      <dc:title>Matplotlib v3.11.1, https://matplotlib.org/</dc:title>
     </cc:Agent>
    </dc:creator>
   </cc:Work>
  </rdf:RDF>
 </metadata>
 <defs>
  <style type="text/css">*{stroke-linejoin: round; stroke-linecap: butt}</style>
 </defs>
 <g id="figure_1">
  <g id="patch_1">
   <path d="M 0 324 
L 504 324 
L 504 0 
L 0 0 
z
" style="fill: #ffffff"/>
  </g>
  <g id="axes_1">
   <g id="patch_2">
    <path d="M 52.22 275.857656 
L 492.12 275.857656 
L 492.12 27.24 
L 52.22 27.24 
z
" style="fill: #ffffff"/>
   </g>
   <g id="matplotlib.axis_1">
    <g id="xtick_1">
     <g id="line2d_1">
      <path d="M 72.215455 275.857656 
L 72.215455 27.24 
" clip-path="url(#p91f6377f2d)" style="fill: none; stroke: #cccccc; stroke-linecap: round"/>
     </g>
     <g id="text_1">
      <!-- $\mathdefault{0}$ -->
      <g style="fill: #262626" transform="translate(69.015455 292.955312) scale(0.1 -0.1)">
       <defs>
        <path id="DejaVuSans-13" d="M 2034 4250 
Q 1547 4250 1301 3770 
Q 1056 3291 1056 2328 
Q 1056 1369 1301 889 
Q 1547 409 2034 409 
Q 2525 409 2770 889 
Q 3016 1369 3016 2328 
Q 3016 3291 2770 3770 
Q 2525 4250 2034 4250 
z
M 2034 4750 
Q 2819 4750 3233 4129 
Q 3647 3509 3647 2328 
Q 3647 1150 3233 529 
Q 2819 -91 2034 -91 
Q 1250 -91 836 529 
Q 422 1150 422 2328 
Q 422 3509 836 4129 
Q 1250 4750 2034 4750 
z
" transform="scale(0.015625)"/>
       </defs>
       <use xlink:href="#DejaVuSans-13" transform="translate(0 0.78125)"/>
      </g>
     </g>
    </g>
    <g id="xtick_2">
     <g id="line2d_2">
      <path d="M 169.084082 275.857656 
L 169.084082 27.24 
" clip-path="url(#p91f6377f2d)" style="fill: none; stroke: #cccccc; stroke-linecap: round"/>
     </g>
     <g id="text_2">
      <!-- $\mathdefault{10^{0}}$ -->
      <g style="fill: #262626" transform="translate(160.284082 294.757656) scale(0.1 -0.1)">
       <defs>
        <path id="DejaVuSans-14" d="M 794 531 
L 1825 531 
L 1825 4091 
L 703 3866 
L 703 4441 
L 1819 4666 
L 2450 4666 
L 2450 531 
L 3481 531 
L 3481 0 
L 794 0 
L 794 531 
z
" transform="scale(0.015625)"/>
       </defs>
       <use xlink:href="#DejaVuSans-14" transform="translate(0 0.746875)"/>
       <use xlink:href="#DejaVuSans-13" transform="translate(63.623047 0.746875)"/>
       <use xlink:href="#DejaVuSans-13" transform="translate(128.203125 42.046875) scale(0.7)"/>
      </g>
     </g>
    </g>
    <g id="xtick_3">
     <g id="line2d_3">
      <path d="M 256.265846 275.857656 
L 256.265846 27.24 
" clip-path="url(#p91f6377f2d)" style="fill: none; stroke: #cccccc; stroke-linecap: round"/>
     </g>
     <g id="text_3">
      <!-- $\mathdefault{10^{1}}$ -->
      <g style="fill: #262626" transform="translate(247.465846 294.657656) scale(0.1 -0.1)">
       <use xlink:href="#DejaVuSans-14" transform="translate(0 0.665625)"/>
       <use xlink:href="#DejaVuSans-13" transform="translate(63.623047 0.665625)"/>
       <use xlink:href="#DejaVuSans-14" transform="translate(128.203125 41.965625) scale(0.7)"/>
      </g>
     </g>
    </g>
    <g id="xtick_4">
     <g id="line2d_4">
      <path d="M 343.44761 275.857656 
L 343.44761 27.24 
" clip-path="url(#p91f6377f2d)" style="fill: none; stroke: #cccccc; stroke-linecap: round"/>
     </g>
     <g id="text_4">
      <!-- $\mathdefault{10^{2}}$ -->
      <g style="fill: #262626" transform="translate(334.64761 294.757656) scale(0.1 -0.1)">
       <defs>
        <path id="DejaVuSans-15" d="M 1228 531 
L 3431 531 
L 3431 0 
L 469 0 
L 469 531 
Q 828 903 1448 1529 
Q 2069 2156 2228 2338 
Q 2531 2678 2651 2914 
Q 2772 3150 2772 3378 
Q 2772 3750 2511 3984 
Q 2250 4219 1831 4219 
Q 1534 4219 1204 4116 
Q 875 4013 500 3803 
L 500 4441 
Q 881 4594 1212 4672 
Q 1544 4750 1819 4750 
Q 2544 4750 2975 4387 
Q 3406 4025 3406 3419 
Q 3406 3131 3298 2873 
Q 3191 2616 2906 2266 
Q 2828 2175 2409 1742 
Q 1991 1309 1228 531 
z
" transform="scale(0.015625)"/>
       </defs>
       <use xlink:href="#DejaVuSans-14" transform="translate(0 0.746875)"/>
       <use xlink:href="#DejaVuSans-13" transform="translate(63.623047 0.746875)"/>
       <use xlink:href="#DejaVuSans-15" transform="translate(128.203125 42.046875) scale(0.7)"/>
      </g>
     </g>
    </g>
    <g id="xtick_5">
     <g id="line2d_5">
      <path d="M 430.629374 275.857656 
L 430.629374 27.24 
" clip-path="url(#p91f6377f2d)" style="fill: none; stroke: #cccccc; stroke-linecap: round"/>
     </g>
     <g id="text_5">
      <!-- $\mathdefault{10^{3}}$ -->
      <g style="fill: #262626" transform="translate(421.829374 294.757656) scale(0.1 -0.1)">
       <defs>
        <path id="DejaVuSans-16" d="M 2597 2516 
Q 3050 2419 3304 2112 
Q 3559 1806 3559 1356 
Q 3559 666 3084 287 
Q 2609 -91 1734 -91 
Q 1441 -91 1130 -33 
Q 819 25 488 141 
L 488 750 
Q 750 597 1062 519 
Q 1375 441 1716 441 
Q 2309 441 2620 675 
Q 2931 909 2931 1356 
Q 2931 1769 2642 2001 
Q 2353 2234 1838 2234 
L 1294 2234 
L 1294 2753 
L 1863 2753 
Q 2328 2753 2575 2939 
Q 2822 3125 2822 3475 
Q 2822 3834 2567 4026 
Q 2313 4219 1838 4219 
Q 1578 4219 1281 4162 
Q 984 4106 628 3988 
L 628 4550 
Q 988 4650 1302 4700 
Q 1616 4750 1894 4750 
Q 2613 4750 3031 4423 
Q 3450 4097 3450 3541 
Q 3450 3153 3228 2886 
Q 3006 2619 2597 2516 
z
" transform="scale(0.015625)"/>
       </defs>
       <use xlink:href="#DejaVuSans-14" transform="translate(0 0.746875)"/>
       <use xlink:href="#DejaVuSans-13" transform="translate(63.623047 0.746875)"/>
       <use xlink:href="#DejaVuSans-16" transform="translate(128.203125 42.046875) scale(0.7)"/>
      </g>
     </g>
    </g>
    <g id="text_6">
     <!-- first-post offset (s) -->
     <g style="fill: #262626" transform="translate(221.348281 309.518281) scale(0.11 -0.11)">
      <defs>
       <path id="DejaVuSans-13af" d="M 3431 3500 
L 3431 0 
L 2853 0 
L 2853 3053 
L 1275 3053 
L 1275 0 
L 697 0 
L 697 3053 
L 147 3053 
L 147 3500 
L 697 3500 
L 697 3744 
Q 697 4316 967 4589 
Q 1238 4863 1797 4863 
L 2375 4863 
L 2375 4384 
L 1825 4384 
Q 1516 4384 1395 4259 
Q 1275 4134 1275 3809 
L 1275 3500 
L 3431 3500 
z
M 2853 4856 
L 3431 4856 
L 3431 4128 
L 2853 4128 
L 2853 4856 
z
" transform="scale(0.015625)"/>
       <path id="DejaVuSans-55" d="M 2631 2963 
Q 2534 3019 2420 3045 
Q 2306 3072 2169 3072 
Q 1681 3072 1420 2755 
Q 1159 2438 1159 1844 
L 1159 0 
L 581 0 
L 581 3500 
L 1159 3500 
L 1159 2956 
Q 1341 3275 1631 3429 
Q 1922 3584 2338 3584 
Q 2397 3584 2469 3576 
Q 2541 3569 2628 3553 
L 2631 2963 
z
" transform="scale(0.015625)"/>
       <path id="DejaVuSans-56" d="M 2834 3397 
L 2834 2853 
Q 2591 2978 2328 3040 
Q 2066 3103 1784 3103 
Q 1356 3103 1142 2972 
Q 928 2841 928 2578 
Q 928 2378 1081 2264 
Q 1234 2150 1697 2047 
L 1894 2003 
Q 2506 1872 2764 1633 
Q 3022 1394 3022 966 
Q 3022 478 2636 193 
Q 2250 -91 1575 -91 
Q 1294 -91 989 -36 
Q 684 19 347 128 
L 347 722 
Q 666 556 975 473 
Q 1284 391 1588 391 
Q 1994 391 2212 530 
Q 2431 669 2431 922 
Q 2431 1156 2273 1281 
Q 2116 1406 1581 1522 
L 1381 1569 
Q 847 1681 609 1914 
Q 372 2147 372 2553 
Q 372 3047 722 3315 
Q 1072 3584 1716 3584 
Q 2034 3584 2315 3537 
Q 2597 3491 2834 3397 
z
" transform="scale(0.015625)"/>
       <path id="DejaVuSans-57" d="M 1172 4494 
L 1172 3500 
L 2356 3500 
L 2356 3053 
L 1172 3053 
L 1172 1153 
Q 1172 725 1289 603 
Q 1406 481 1766 481 
L 2356 481 
L 2356 0 
L 1766 0 
Q 1100 0 847 248 
Q 594 497 594 1153 
L 594 3053 
L 172 3053 
L 172 3500 
L 594 3500 
L 594 4494 
L 1172 4494 
z
" transform="scale(0.015625)"/>
       <path id="DejaVuSans-10" d="M 313 2009 
L 1997 2009 
L 1997 1497 
L 313 1497 
L 313 2009 
z
" transform="scale(0.015625)"/>
       <path id="DejaVuSans-53" d="M 1159 525 
L 1159 -1331 
L 581 -1331 
L 581 3500 
L 1159 3500 
L 1159 2969 
Q 1341 3281 1617 3432 
Q 1894 3584 2278 3584 
Q 2916 3584 3314 3078 
Q 3713 2572 3713 1747 
Q 3713 922 3314 415 
Q 2916 -91 2278 -91 
Q 1894 -91 1617 61 
Q 1341 213 1159 525 
z
M 3116 1747 
Q 3116 2381 2855 2742 
Q 2594 3103 2138 3103 
Q 1681 3103 1420 2742 
Q 1159 2381 1159 1747 
Q 1159 1113 1420 752 
Q 1681 391 2138 391 
Q 2594 391 2855 752 
Q 3116 1113 3116 1747 
z
" transform="scale(0.015625)"/>
       <path id="DejaVuSans-52" d="M 1959 3097 
Q 1497 3097 1228 2736 
Q 959 2375 959 1747 
Q 959 1119 1226 758 
Q 1494 397 1959 397 
Q 2419 397 2687 759 
Q 2956 1122 2956 1747 
Q 2956 2369 2687 2733 
Q 2419 3097 1959 3097 
z
M 1959 3584 
Q 2709 3584 3137 3096 
Q 3566 2609 3566 1747 
Q 3566 888 3137 398 
Q 2709 -91 1959 -91 
Q 1206 -91 779 398 
Q 353 888 353 1747 
Q 353 2609 779 3096 
Q 1206 3584 1959 3584 
z
" transform="scale(0.015625)"/>
       <path id="DejaVuSans-3" transform="scale(0.015625)"/>
       <path id="DejaVuSans-13ae" d="M 4531 4863 
L 4531 4384 
L 3981 4384 
Q 3672 4384 3551 4259 
Q 3431 4134 3431 3809 
L 3431 3500 
L 4378 3500 
L 4378 3053 
L 3431 3053 
L 3431 0 
L 2853 0 
L 2853 3053 
L 1275 3053 
L 1275 0 
L 697 0 
L 697 3053 
L 147 3053 
L 147 3500 
L 697 3500 
L 697 3744 
Q 697 4328 969 4595 
Q 1241 4863 1831 4863 
L 2375 4863 
L 2375 4384 
L 1825 4384 
Q 1516 4384 1394 4259 
Q 1275 4134 1275 3809 
L 1275 3500 
L 2853 3500 
L 2853 3744 
Q 2853 4328 3125 4595 
Q 3397 4863 3988 4863 
L 4531 4863 
z
" transform="scale(0.015625)"/>
       <path id="DejaVuSans-48" d="M 3597 1894 
L 3597 1613 
L 953 1613 
Q 991 1019 1311 708 
Q 1631 397 2203 397 
Q 2534 397 2845 478 
Q 3156 559 3463 722 
L 3463 178 
Q 3153 47 2828 -22 
Q 2503 -91 2169 -91 
Q 1331 -91 842 396 
Q 353 884 353 1716 
Q 353 2575 817 3079 
Q 1281 3584 2069 3584 
Q 2775 3584 3186 3129 
Q 3597 2675 3597 1894 
z
M 3022 2063 
Q 3016 2534 2758 2815 
Q 2500 3097 2075 3097 
Q 1594 3097 1305 2825 
Q 1016 2553 972 2059 
L 3022 2063 
z
" transform="scale(0.015625)"/>
       <path id="DejaVuSans-b" d="M 1984 4856 
Q 1566 4138 1362 3434 
Q 1159 2731 1159 2009 
Q 1159 1288 1364 580 
Q 1569 -128 1984 -844 
L 1484 -844 
Q 1016 -109 783 600 
Q 550 1309 550 2009 
Q 550 2706 781 3412 
Q 1013 4119 1484 4856 
L 1984 4856 
z
" transform="scale(0.015625)"/>
       <path id="DejaVuSans-c" d="M 513 4856 
L 1013 4856 
Q 1481 4119 1714 3412 
Q 1947 2706 1947 2009 
Q 1947 1309 1714 600 
Q 1481 -109 1013 -844 
L 513 -844 
Q 928 -128 1133 580 
Q 1338 1288 1338 2009 
Q 1338 2731 1133 3434 
Q 928 4138 513 4856 
z
" transform="scale(0.015625)"/>
      </defs>
      <use xlink:href="#DejaVuSans-13af"/>
      <use xlink:href="#DejaVuSans-55" transform="translate(62.984375 0)"/>
      <use xlink:href="#DejaVuSans-56" transform="translate(104.09375 0)"/>
      <use xlink:href="#DejaVuSans-57" transform="translate(156.1875 0)"/>
      <use xlink:href="#DejaVuSans-10" transform="translate(195.390625 0)"/>
      <use xlink:href="#DejaVuSans-53" transform="translate(231.46875 0)"/>
      <use xlink:href="#DejaVuSans-52" transform="translate(294.953125 0)"/>
      <use xlink:href="#DejaVuSans-56" transform="translate(356.140625 0)"/>
      <use xlink:href="#DejaVuSans-57" transform="translate(408.234375 0)"/>
      <use xlink:href="#DejaVuSans-3" transform="translate(447.4375 0)"/>
      <use xlink:href="#DejaVuSans-52" transform="translate(479.21875 0)"/>
      <use xlink:href="#DejaVuSans-13ae" transform="translate(540.40625 0)"/>
      <use xlink:href="#DejaVuSans-56" transform="translate(609.296875 0)"/>
      <use xlink:href="#DejaVuSans-48" transform="translate(661.390625 0)"/>
      <use xlink:href="#DejaVuSans-57" transform="translate(722.921875 0)"/>
      <use xlink:href="#DejaVuSans-3" transform="translate(762.125 0)"/>
      <use xlink:href="#DejaVuSans-b" transform="translate(793.90625 0)"/>
      <use xlink:href="#DejaVuSans-56" transform="translate(832.921875 0)"/>
      <use xlink:href="#DejaVuSans-c" transform="translate(885.015625 0)"/>
     </g>
    </g>
   </g>
   <g id="matplotlib.axis_2">
    <g id="ytick_1">
     <g id="line2d_6">
      <path d="M 52.22 264.557504 
L 492.12 264.557504 
" clip-path="url(#p91f6377f2d)" style="fill: none; stroke: #cccccc; stroke-linecap: round"/>
     </g>
     <g id="text_7">
      <!-- 0.0 -->
      <g style="fill: #262626" transform="translate(26.816875 268.356332) scale(0.1 -0.1)">
       <defs>
        <path id="DejaVuSans-11" d="M 684 794 
L 1344 794 
L 1344 0 
L 684 0 
L 684 794 
z
" transform="scale(0.015625)"/>
       </defs>
       <use xlink:href="#DejaVuSans-13"/>
       <use xlink:href="#DejaVuSans-11" transform="translate(63.625 0)"/>
       <use xlink:href="#DejaVuSans-13" transform="translate(95.40625 0)"/>
      </g>
     </g>
    </g>
    <g id="ytick_2">
     <g id="line2d_7">
      <path d="M 52.22 219.354164 
L 492.12 219.354164 
" clip-path="url(#p91f6377f2d)" style="fill: none; stroke: #cccccc; stroke-linecap: round"/>
     </g>
     <g id="text_8">
      <!-- 0.2 -->
      <g style="fill: #262626" transform="translate(26.816875 223.152992) scale(0.1 -0.1)">
       <use xlink:href="#DejaVuSans-13"/>
       <use xlink:href="#DejaVuSans-11" transform="translate(63.625 0)"/>
       <use xlink:href="#DejaVuSans-15" transform="translate(95.40625 0)"/>
      </g>
     </g>
    </g>
    <g id="ytick_3">
     <g id="line2d_8">
      <path d="M 52.22 174.150824 
L 492.12 174.150824 
" clip-path="url(#p91f6377f2d)" style="fill: none; stroke: #cccccc; stroke-linecap: round"/>
     </g>
     <g id="text_9">
      <!-- 0.4 -->
      <g style="fill: #262626" transform="translate(26.816875 177.949652) scale(0.1 -0.1)">
       <defs>
        <path id="DejaVuSans-17" d="M 2419 4116 
L 825 1625 
L 2419 1625 
L 2419 4116 
z
M 2253 4666 
L 3047 4666 
L 3047 1625 
L 3713 1625 
L 3713 1100 
L 3047 1100 
L 3047 0 
L 2419 0 
L 2419 1100 
L 313 1100 
L 313 1709 
L 2253 4666 
z
" transform="scale(0.015625)"/>
       </defs>
       <use xlink:href="#DejaVuSans-13"/>
       <use xlink:href="#DejaVuSans-11" transform="translate(63.625 0)"/>
       <use xlink:href="#DejaVuSans-17" transform="translate(95.40625 0)"/>
      </g>
     </g>
    </g>
    <g id="ytick_4">
     <g id="line2d_9">
      <path d="M 52.22 128.947483 
L 492.12 128.947483 
" clip-path="url(#p91f6377f2d)" style="fill: none; stroke: #cccccc; stroke-linecap: round"/>
     </g>
     <g id="text_10">
      <!-- 0.6 -->
      <g style="fill: #262626" transform="translate(26.816875 132.746311) scale(0.1 -0.1)">
       <defs>
        <path id="DejaVuSans-19" d="M 2113 2584 
Q 1688 2584 1439 2293 
Q 1191 2003 1191 1497 
Q 1191 994 1439 701 
Q 1688 409 2113 409 
Q 2538 409 2786 701 
Q 3034 994 3034 1497 
Q 3034 2003 2786 2293 
Q 2538 2584 2113 2584 
z
M 3366 4563 
L 3366 3988 
Q 3128 4100 2886 4159 
Q 2644 4219 2406 4219 
Q 1781 4219 1451 3797 
Q 1122 3375 1075 2522 
Q 1259 2794 1537 2939 
Q 1816 3084 2150 3084 
Q 2853 3084 3261 2657 
Q 3669 2231 3669 1497 
Q 3669 778 3244 343 
Q 2819 -91 2113 -91 
Q 1303 -91 875 529 
Q 447 1150 447 2328 
Q 447 3434 972 4092 
Q 1497 4750 2381 4750 
Q 2619 4750 2861 4703 
Q 3103 4656 3366 4563 
z
" transform="scale(0.015625)"/>
       </defs>
       <use xlink:href="#DejaVuSans-13"/>
       <use xlink:href="#DejaVuSans-11" transform="translate(63.625 0)"/>
       <use xlink:href="#DejaVuSans-19" transform="translate(95.40625 0)"/>
      </g>
     </g>
    </g>
    <g id="ytick_5">
     <g id="line2d_10">
      <path d="M 52.22 83.744143 
L 492.12 83.744143 
" clip-path="url(#p91f6377f2d)" style="fill: none; stroke: #cccccc; stroke-linecap: round"/>
     </g>
     <g id="text_11">
      <!-- 0.8 -->
      <g style="fill: #262626" transform="translate(26.816875 87.542971) scale(0.1 -0.1)">
       <defs>
        <path id="DejaVuSans-1b" d="M 2034 2216 
Q 1584 2216 1326 1975 
Q 1069 1734 1069 1313 
Q 1069 891 1326 650 
Q 1584 409 2034 409 
Q 2484 409 2743 651 
Q 3003 894 3003 1313 
Q 3003 1734 2745 1975 
Q 2488 2216 2034 2216 
z
M 1403 2484 
Q 997 2584 770 2862 
Q 544 3141 544 3541 
Q 544 4100 942 4425 
Q 1341 4750 2034 4750 
Q 2731 4750 3128 4425 
Q 3525 4100 3525 3541 
Q 3525 3141 3298 2862 
Q 3072 2584 2669 2484 
Q 3125 2378 3379 2068 
Q 3634 1759 3634 1313 
Q 3634 634 3220 271 
Q 2806 -91 2034 -91 
Q 1263 -91 848 271 
Q 434 634 434 1313 
Q 434 1759 690 2068 
Q 947 2378 1403 2484 
z
M 1172 3481 
Q 1172 3119 1398 2916 
Q 1625 2713 2034 2713 
Q 2441 2713 2670 2916 
Q 2900 3119 2900 3481 
Q 2900 3844 2670 4047 
Q 2441 4250 2034 4250 
Q 1625 4250 1398 4047 
Q 1172 3844 1172 3481 
z
" transform="scale(0.015625)"/>
       </defs>
       <use xlink:href="#DejaVuSans-13"/>
       <use xlink:href="#DejaVuSans-11" transform="translate(63.625 0)"/>
       <use xlink:href="#DejaVuSans-1b" transform="translate(95.40625 0)"/>
      </g>
     </g>
    </g>
    <g id="ytick_6">
     <g id="line2d_11">
      <path d="M 52.22 38.540803 
L 492.12 38.540803 
" clip-path="url(#p91f6377f2d)" style="fill: none; stroke: #cccccc; stroke-linecap: round"/>
     </g>
     <g id="text_12">
      <!-- 1.0 -->
      <g style="fill: #262626" transform="translate(26.816875 42.339631) scale(0.1 -0.1)">
       <use xlink:href="#DejaVuSans-14"/>
       <use xlink:href="#DejaVuSans-11" transform="translate(63.625 0)"/>
       <use xlink:href="#DejaVuSans-13" transform="translate(95.40625 0)"/>
      </g>
     </g>
    </g>
    <g id="text_13">
     <!-- ECDF -->
     <g style="fill: #262626" transform="translate(20.174297 166.263047) rotate(-90) scale(0.11 -0.11)">
      <defs>
       <path id="DejaVuSans-28" d="M 628 4666 
L 3578 4666 
L 3578 4134 
L 1259 4134 
L 1259 2753 
L 3481 2753 
L 3481 2222 
L 1259 2222 
L 1259 531 
L 3634 531 
L 3634 0 
L 628 0 
L 628 4666 
z
" transform="scale(0.015625)"/>
       <path id="DejaVuSans-26" d="M 4122 4306 
L 4122 3641 
Q 3803 3938 3442 4084 
Q 3081 4231 2675 4231 
Q 1875 4231 1450 3742 
Q 1025 3253 1025 2328 
Q 1025 1406 1450 917 
Q 1875 428 2675 428 
Q 3081 428 3442 575 
Q 3803 722 4122 1019 
L 4122 359 
Q 3791 134 3420 21 
Q 3050 -91 2638 -91 
Q 1578 -91 968 557 
Q 359 1206 359 2328 
Q 359 3453 968 4101 
Q 1578 4750 2638 4750 
Q 3056 4750 3426 4639 
Q 3797 4528 4122 4306 
z
" transform="scale(0.015625)"/>
       <path id="DejaVuSans-27" d="M 1259 4147 
L 1259 519 
L 2022 519 
Q 2988 519 3436 956 
Q 3884 1394 3884 2338 
Q 3884 3275 3436 3711 
Q 2988 4147 2022 4147 
L 1259 4147 
z
M 628 4666 
L 1925 4666 
Q 3281 4666 3915 4102 
Q 4550 3538 4550 2338 
Q 4550 1131 3912 565 
Q 3275 0 1925 0 
L 628 0 
L 628 4666 
z
" transform="scale(0.015625)"/>
       <path id="DejaVuSans-29" d="M 628 4666 
L 3309 4666 
L 3309 4134 
L 1259 4134 
L 1259 2759 
L 3109 2759 
L 3109 2228 
L 1259 2228 
L 1259 0 
L 628 0 
L 628 4666 
z
" transform="scale(0.015625)"/>
      </defs>
      <use xlink:href="#DejaVuSans-28"/>
      <use xlink:href="#DejaVuSans-26" transform="translate(63.1875 0)"/>
      <use xlink:href="#DejaVuSans-27" transform="translate(133.015625 0)"/>
      <use xlink:href="#DejaVuSans-29" transform="translate(210.015625 0)"/>
     </g>
    </g>
   </g>
   <g id="line2d_12">
    <path d="M 72.215455 264.556854 
L 72.215455 123.925815 
L 221.572734 123.813936 
L 221.572734 123.696203 
L 230.02152 123.584975 
L 230.02152 123.413904 
L 236.92468 123.302676 
L 236.92468 123.076967 
L 242.76122 122.965738 
L 242.76122 122.639208 
L 247.81706 122.52798 
L 247.81706 122.183888 
L 252.276627 122.072659 
L 252.276627 121.714257 
L 256.265846 121.603028 
L 256.265846 121.201045 
L 259.874533 121.089817 
L 259.874533 120.667019 
L 263.169007 120.55579 
L 263.169007 120.125187 
L 266.199628 120.013959 
L 266.199628 119.551483 
L 269.005546 119.440254 
L 269.005546 118.98038 
L 271.617792 118.869152 
L 271.617792 118.393667 
L 274.061386 118.282439 
L 274.061386 117.819312 
L 276.356789 117.708084 
L 276.356789 117.259918 
L 278.520953 117.14869 
L 278.520953 116.68101 
L 280.568077 116.569782 
L 280.568077 116.100801 
L 282.510172 115.989573 
L 282.510172 115.497176 
L 284.357492 115.385948 
L 284.357492 114.924773 
L 286.118859 114.813544 
L 286.118859 114.349768 
L 287.801917 114.238539 
L 287.801917 113.798179 
L 289.413333 113.686951 
L 289.413333 113.23163 
L 290.958958 113.120401 
L 290.958958 112.676138 
L 292.443954 112.56491 
L 292.443954 112.133656 
L 293.8729 112.022428 
L 293.8729 111.598329 
L 295.249872 111.487101 
L 295.249872 111.04674 
L 296.578519 110.935512 
L 296.578519 110.52052 
L 297.862119 110.409291 
L 297.862119 109.961776 
L 299.103625 109.850547 
L 299.103625 109.39978 
L 300.305712 109.288551 
L 300.305712 108.862501 
L 301.470806 108.751273 
L 301.470806 108.331077 
L 302.601115 108.219848 
L 302.601115 107.784692 
L 303.698658 107.673463 
L 303.698658 107.263675 
L 304.765279 107.152446 
L 304.765279 106.757618 
L 305.802675 106.64639 
L 305.802675 106.261969 
L 306.812403 106.150741 
L 306.812403 105.765669 
L 307.795901 105.654441 
L 307.795901 105.299291 
L 308.754498 105.188062 
L 308.754498 104.823155 
L 309.689424 104.711927 
L 309.689424 104.352223 
L 310.601819 104.240995 
L 310.601819 103.857225 
L 311.492743 103.745996 
L 311.492743 103.405807 
L 312.363185 103.294578 
L 312.363185 102.924467 
L 313.214065 102.813239 
L 313.214065 102.4737 
L 314.046243 102.361821 
L 314.046243 102.030087 
L 314.860523 101.918859 
L 314.860523 101.55135 
L 315.657659 101.440121 
L 315.657659 101.136357 
L 316.438358 101.025129 
L 316.438358 100.697949 
L 317.203284 100.58672 
L 317.203284 100.255637 
L 317.953062 100.144409 
L 317.953062 99.807471 
L 318.688281 99.696243 
L 318.688281 99.388576 
L 319.409494 99.277348 
L 319.409494 98.95472 
L 320.117226 98.843492 
L 320.117226 98.546883 
L 320.811971 98.435655 
L 320.811971 98.127337 
L 321.494198 98.016109 
L 321.494198 97.686327 
L 322.164349 97.575098 
L 322.164349 97.283042 
L 322.822845 97.171814 
L 322.822845 96.858293 
L 323.470084 96.747065 
L 323.470084 96.469319 
L 324.106445 96.358091 
L 324.106445 96.081646 
L 324.732286 95.970418 
L 324.732286 95.694623 
L 325.347951 95.583395 
L 325.347951 95.309552 
L 325.953765 95.198324 
L 325.953765 94.919277 
L 326.550038 94.808049 
L 326.550038 94.55437 
L 327.137066 94.443141 
L 327.137066 94.161493 
L 327.715132 94.050265 
L 327.715132 93.795285 
L 328.284505 93.684057 
L 328.284505 93.432329 
L 328.845442 93.321101 
L 328.845442 93.053762 
L 329.39819 92.942534 
L 329.39819 92.706418 
L 329.942984 92.595189 
L 329.942984 92.34086 
L 330.480051 92.22768 
L 330.480051 91.958391 
L 331.009605 91.847162 
L 331.009605 91.590231 
L 331.531856 91.479003 
L 331.531856 91.236382 
L 332.047001 91.125154 
L 332.047001 90.870824 
L 332.555231 90.759596 
L 332.555231 90.515024 
L 333.056729 90.403795 
L 333.056729 90.191095 
L 333.551671 90.079867 
L 333.551671 89.847003 
L 334.040227 89.735775 
L 334.040227 89.491202 
L 334.522559 89.379974 
L 334.522559 89.157517 
L 334.998824 89.046289 
L 334.998824 88.808871 
L 335.469173 88.697643 
L 335.469173 88.457624 
L 335.93375 88.346396 
L 335.93375 88.109629 
L 336.392695 87.9984 
L 336.392695 87.773342 
L 336.846145 87.662113 
L 336.846145 87.455268 
L 337.294228 87.344039 
L 337.294228 87.169717 
L 337.73707 87.058488 
L 337.73707 86.86205 
L 338.174792 86.750821 
L 338.174792 86.540723 
L 338.607512 86.429495 
L 338.607512 86.233057 
L 339.035342 86.121828 
L 339.035342 85.92539 
L 339.458391 85.814161 
L 339.458391 85.620325 
L 339.876766 85.509096 
L 339.876766 85.322415 
L 340.290569 85.211187 
L 340.290569 85.001739 
L 340.699898 84.890511 
L 340.699898 84.684966 
L 341.104849 84.573737 
L 341.104849 84.365591 
L 341.505515 84.254362 
L 341.505515 84.061176 
L 341.901985 83.949297 
L 341.901985 83.779528 
L 342.294347 83.668299 
L 342.294347 83.488773 
L 342.682684 83.377545 
L 342.682684 83.199319 
L 343.067079 83.088091 
L 343.067079 82.897506 
L 343.44761 82.786278 
L 343.44761 82.610654 
L 343.824355 82.499426 
L 343.824355 82.339413 
L 344.197388 82.228185 
L 344.197388 82.067522 
L 344.566782 81.956293 
L 344.566782 81.780669 
L 344.932607 81.669441 
L 344.932607 81.495118 
L 345.294931 81.38389 
L 345.294931 81.183549 
L 345.65382 81.07232 
L 345.65382 80.897347 
L 346.00934 80.786119 
L 346.00934 80.615699 
L 346.361552 80.50447 
L 346.361552 80.357467 
L 346.710518 80.246238 
L 346.710518 80.099885 
L 347.056297 79.988657 
L 347.056297 79.845556 
L 347.398947 79.734328 
L 347.398947 79.593178 
L 347.738524 79.48195 
L 347.738524 79.329092 
L 348.075082 79.217864 
L 348.075082 79.059802 
L 348.408675 78.948574 
L 348.408675 78.806774 
L 348.739355 78.695546 
L 348.739355 78.553095 
L 349.067171 78.441867 
L 349.067171 78.303319 
L 349.392174 78.192091 
L 349.392174 78.042485 
L 349.71441 77.931257 
L 349.71441 77.803117 
L 350.033927 77.691888 
L 350.033927 77.551389 
L 350.350771 77.440161 
L 350.350771 77.321778 
L 350.664985 77.210549 
L 350.664985 77.091515 
L 350.976612 76.980287 
L 350.976612 76.869709 
L 351.285696 76.758481 
L 351.285696 76.632942 
L 351.592277 76.521714 
L 351.592277 76.394875 
L 351.896396 76.283646 
L 351.896396 76.156156 
L 352.198091 76.044928 
L 352.218031 75.92004 
L 352.497402 75.808812 
L 352.497402 75.696933 
L 352.794364 75.585704 
L 352.794364 75.469272 
L 353.089016 75.358044 
L 353.089016 75.23901 
L 353.381393 75.127782 
L 353.381393 74.996389 
L 353.671529 74.885161 
L 353.671529 74.758972 
L 353.959458 74.647744 
L 353.959458 74.524156 
L 354.245215 74.412928 
L 354.245215 74.298447 
L 354.528831 74.187219 
L 354.528831 74.078593 
L 354.810338 73.967364 
L 354.810338 73.855485 
L 355.089768 73.744257 
L 355.089768 73.657096 
L 355.36715 73.545867 
L 355.36715 73.435289 
L 355.642516 73.324061 
L 355.642516 73.201124 
L 355.915893 73.089896 
L 355.915893 72.978017 
L 356.18731 72.866789 
L 356.18731 72.757512 
L 356.456796 72.646283 
L 356.456796 72.550015 
L 356.724377 72.438787 
L 356.724377 72.35748 
L 356.99008 72.246251 
L 356.99008 72.13112 
L 357.253932 72.019892 
L 357.253932 71.914518 
L 357.515957 71.803289 
L 357.515957 71.701818 
L 357.776182 71.590589 
L 357.776182 71.519039 
L 358.034631 71.407811 
L 358.034631 71.331707 
L 358.291327 71.220479 
L 358.291327 71.121609 
L 358.546295 71.010381 
L 358.546295 70.929073 
L 358.799557 70.817845 
L 358.799557 70.72613 
L 359.051136 70.614902 
L 359.051136 70.522537 
L 359.301055 70.411309 
L 359.301055 70.315691 
L 359.549335 70.204463 
L 359.549335 70.108845 
L 359.795997 69.997617 
L 359.795997 69.871428 
L 360.041063 69.7602 
L 360.041063 69.680193 
L 360.284553 69.568965 
L 360.284553 69.477901 
L 360.526487 69.366672 
L 360.526487 69.298374 
L 360.766885 69.187146 
L 360.766885 69.085675 
L 361.005767 68.974446 
L 361.005767 68.893789 
L 361.24315 68.782561 
L 361.24315 68.662877 
L 361.479055 68.551648 
L 361.479055 68.470341 
L 361.713499 68.358462 
L 361.713499 68.290164 
L 361.9465 68.178936 
L 361.9465 68.093075 
L 362.178076 67.981847 
L 362.178076 67.880375 
L 362.408244 67.769147 
L 362.408244 67.681985 
L 362.637022 67.570757 
L 362.637022 67.494003 
L 362.864425 67.382775 
L 362.864425 67.331388 
L 363.090471 67.22016 
L 363.090471 67.160968 
L 363.315175 67.04974 
L 363.315175 66.99315 
L 363.538554 66.881922 
L 363.538554 66.818177 
L 363.760622 66.706948 
L 363.760622 66.641903 
L 363.981396 66.530674 
L 363.981396 66.461726 
L 364.200889 66.350497 
L 364.200889 66.288053 
L 364.419118 66.176825 
L 364.419118 66.114381 
L 364.636096 66.003153 
L 364.636096 65.934204 
L 364.851838 65.822976 
L 364.851838 65.759881 
L 365.066357 65.648653 
L 365.066357 65.594014 
L 365.279668 65.482786 
L 365.279668 65.422944 
L 365.491783 65.311715 
L 365.491783 65.252524 
L 365.702717 65.141295 
L 365.702717 65.099666 
L 365.912483 64.988438 
L 365.912483 64.915586 
L 366.121093 64.804358 
L 366.121093 64.752972 
L 366.328559 64.641743 
L 366.328559 64.5806 
L 366.534895 64.469372 
L 366.534895 64.397171 
L 366.740113 64.285943 
L 366.740113 64.247566 
L 366.944224 64.136337 
L 366.944224 64.062185 
L 367.147241 63.950957 
L 367.147241 63.891114 
L 367.349175 63.779886 
L 367.349175 63.733704 
L 367.550038 63.622475 
L 367.550038 63.570438 
L 367.749841 63.45921 
L 367.749841 63.406523 
L 367.948595 63.295295 
L 367.948595 63.24586 
L 368.146311 63.134631 
L 368.146311 63.107963 
L 368.343 62.996734 
L 368.343 62.949901 
L 368.538673 62.838673 
L 368.538673 62.799645 
L 368.733339 62.688417 
L 368.733339 62.618818 
L 368.92701 62.50759 
L 368.92701 62.447747 
L 369.119695 62.336519 
L 369.119695 62.289686 
L 369.311405 62.178458 
L 369.311405 62.127722 
L 369.502149 62.016494 
L 369.502149 61.967059 
L 369.691936 61.85583 
L 369.691936 61.805095 
L 369.880777 61.693866 
L 369.880777 61.647684 
L 370.068681 61.536455 
L 370.068681 61.496777 
L 370.255657 61.385549 
L 370.255657 61.353026 
L 370.441714 61.241798 
L 370.441714 61.20212 
L 370.626862 61.090891 
L 370.626862 61.051864 
L 370.811108 60.940636 
L 370.811108 60.910064 
L 370.994462 60.798836 
L 370.994462 60.761759 
L 371.176933 60.650531 
L 371.176933 60.614105 
L 371.358528 60.502877 
L 371.358528 60.458646 
L 371.539257 60.347418 
L 371.539257 60.314244 
L 371.719127 60.203016 
L 371.719127 60.15163 
L 371.898146 60.040401 
L 371.898146 59.99617 
L 372.076323 59.884942 
L 372.076323 59.86803 
L 372.253666 59.756801 
L 372.253666 59.717774 
L 372.430182 59.606546 
L 372.430182 59.568819 
L 372.605878 59.457591 
L 372.605878 59.429621 
L 372.780763 59.318392 
L 372.780763 59.280015 
L 372.954844 59.168787 
L 372.954844 59.148623 
L 373.128129 59.037394 
L 373.128129 59.006823 
L 373.300624 58.895595 
L 373.300624 58.853965 
L 373.472336 58.742737 
L 373.472336 58.717369 
L 373.643273 58.606141 
L 373.643273 58.573618 
L 373.813443 58.462389 
L 373.813443 58.438322 
L 373.98285 58.327094 
L 373.98285 58.313434 
L 374.151503 58.202206 
L 374.151503 58.183993 
L 374.319409 58.072765 
L 374.319409 58.029835 
L 374.486572 57.918606 
L 374.486572 57.888035 
L 374.653002 57.776806 
L 374.653002 57.754691 
L 374.818702 57.643462 
L 374.818702 57.606386 
L 374.983681 57.495158 
L 374.983681 57.46979 
L 375.147944 57.358562 
L 375.147944 57.352057 
L 375.311497 57.240829 
L 375.311497 57.21481 
L 375.474347 57.103582 
L 375.474347 57.081466 
L 375.6365 56.970238 
L 375.6365 56.957229 
L 375.797961 56.846 
L 375.797961 56.826487 
L 375.958736 56.715258 
L 375.958736 56.697696 
L 376.118832 56.586468 
L 376.118832 56.577361 
L 376.278254 56.466133 
L 376.278254 56.445969 
L 376.595097 56.33409 
L 376.595097 56.209202 
L 376.75253 56.097973 
L 376.75253 56.089517 
L 376.909311 55.978289 
L 376.909311 55.957474 
L 377.220939 55.845596 
L 377.220939 55.718756 
L 377.375796 55.607528 
L 377.375796 55.587364 
L 377.530022 55.476135 
L 377.530022 55.466378 
L 377.683623 55.35515 
L 377.683623 55.335636 
L 377.836604 55.224408 
L 377.836604 55.211399 
L 377.988968 55.10017 
L 377.988968 55.088462 
L 378.140722 54.977234 
L 378.140722 54.975282 
L 378.29187 54.864054 
L 378.29187 54.851695 
L 378.442417 54.740467 
L 378.442417 54.73136 
L 378.592368 54.620132 
L 378.592368 54.607773 
L 378.741728 54.496545 
L 378.741728 54.485487 
L 379.038691 54.373608 
L 379.038691 54.259128 
L 379.333342 54.147249 
L 379.333342 54.032118 
L 379.625719 53.920239 
L 379.625719 53.803807 
L 379.771065 53.692579 
L 379.771065 53.688025 
L 379.915855 53.576797 
L 379.915855 53.561836 
L 380.203784 53.449958 
L 380.203784 53.340681 
L 380.346932 53.229452 
L 380.346932 53.224899 
L 380.489541 53.113671 
L 380.489541 53.111069 
L 380.631614 52.99984 
L 380.631614 52.989433 
L 380.773157 52.878205 
L 380.773157 52.867147 
L 380.914172 52.755919 
L 380.914172 52.750715 
L 381.054664 52.639487 
L 381.054664 52.633632 
L 381.194637 52.522404 
L 381.194637 52.518501 
L 381.473039 52.406622 
L 381.473039 52.295394 
L 381.611476 52.184166 
L 381.611476 52.177661 
L 381.749409 52.066433 
L 381.749409 52.057326 
L 381.886842 51.946098 
L 381.886842 51.938943 
L 382.023777 51.827715 
L 382.023777 51.822511 
L 382.296171 51.710632 
L 382.296171 51.59355 
L 382.431636 51.482321 
L 382.431636 51.48037 
L 382.701122 51.368491 
L 382.701122 51.265068 
L 382.968703 51.153189 
L 382.968703 51.034155 
L 383.234406 50.922277 
L 383.234406 50.834465 
L 383.498258 50.722586 
L 383.498258 50.626318 
L 383.760283 50.514439 
L 383.760283 50.409065 
L 384.020508 50.297186 
L 384.020508 50.204171 
L 384.278957 50.092292 
L 384.278957 49.993422 
L 384.535653 49.881543 
L 384.535653 49.783975 
L 384.790621 49.672096 
L 384.790621 49.580381 
L 385.043883 49.468502 
L 385.043883 49.378739 
L 385.295462 49.26686 
L 385.295462 49.250599 
L 385.545381 49.13872 
L 385.545381 49.115303 
L 385.793661 49.003425 
L 385.793661 48.970902 
L 386.040324 48.859023 
L 386.040324 48.822597 
L 386.285389 48.710718 
L 386.285389 48.687302 
L 386.528879 48.575423 
L 386.528879 48.555259 
L 386.770814 48.44338 
L 386.770814 48.425167 
L 387.011212 48.313288 
L 387.011212 48.296376 
L 387.368971 48.183847 
L 387.380529 48.125306 
L 387.605612 48.013427 
L 387.605612 48.004971 
L 387.840784 47.893092 
L 387.840784 47.883335 
L 388.074505 47.771456 
L 388.074505 47.767554 
L 388.306791 47.655675 
L 388.306791 47.652423 
L 388.65257 47.539893 
L 388.65257 47.502167 
L 388.881348 47.390288 
L 388.881348 47.385735 
L 389.221943 47.273205 
L 389.221943 47.221819 
L 389.559501 47.10929 
L 389.559501 47.061806 
L 389.894077 46.949277 
L 390.004948 46.871222 
L 390.335628 46.758693 
L 390.445215 46.689744 
L 390.772089 46.577215 
L 390.880422 46.476394 
L 391.203575 46.363865 
L 391.310683 46.270849 
L 391.6302 46.15832 
L 391.73611 46.08742 
L 392.052072 45.974891 
L 392.156809 45.917 
L 392.469294 45.804471 
L 392.572885 45.752434 
L 392.881969 45.639905 
L 392.984439 45.565102 
L 393.290195 45.452573 
L 393.391567 45.39143 
L 393.794364 45.27825 
L 393.894397 45.211903 
L 394.291908 45.098723 
L 394.390637 45.029124 
L 394.685289 44.916595 
L 394.782999 44.877567 
L 395.171336 44.764388 
L 395.267801 44.706497 
L 395.651223 44.593317 
L 395.746475 44.551688 
L 396.125103 44.438508 
L 396.219172 44.395578 
L 396.499983 44.283049 
L 396.593126 44.246623 
L 396.963423 44.133443 
L 397.055434 44.090513 
L 397.421259 43.977333 
L 397.512165 43.933102 
L 397.873625 43.819922 
L 397.963453 43.791302 
L 398.320649 43.678122 
L 398.409424 43.633241 
L 398.762458 43.520061 
L 398.850204 43.487538 
L 399.19917 43.374358 
L 399.285912 43.337933 
L 399.716662 43.224102 
L 399.802227 43.189628 
L 400.142567 43.076448 
L 400.227176 43.045226 
L 400.647409 42.931396 
L 400.730899 42.891718 
L 401.145608 42.777888 
L 401.228007 42.754472 
L 401.718674 42.639991 
L 401.799837 42.606817 
L 402.283195 42.492337 
L 402.363158 42.457212 
L 402.839423 42.342731 
L 402.918221 42.299151 
L 403.465265 42.18402 
L 403.542773 42.145643 
L 404.004517 42.031162 
L 404.08093 42.007745 
L 404.611545 41.892614 
L 404.686744 41.864645 
L 405.283017 41.748863 
L 405.356895 41.717641 
L 405.870045 41.60251 
L 405.942788 41.577792 
L 406.519752 41.462011 
L 406.591258 41.4464 
L 407.158498 41.330618 
L 407.228809 41.301348 
L 407.786647 41.185566 
L 407.855803 41.173858 
L 408.540497 41.056775 
L 408.60829 41.036611 
L 409.27963 40.919529 
L 409.346114 40.898714 
L 410.069834 40.780981 
L 410.134945 40.757564 
L 410.779979 40.640482 
L 410.843882 40.627473 
L 411.664954 40.508439 
L 411.727382 40.483722 
L 412.529716 40.364688 
L 412.590735 40.345824 
L 413.375167 40.226791 
L 413.43484 40.216383 
L 414.435152 40.094747 
L 414.493179 40.081738 
L 415.579123 39.958802 
L 415.635424 39.945793 
L 416.853331 39.820905 
L 416.962131 39.801391 
L 418.08605 39.677153 
L 418.19137 39.666095 
L 419.635893 39.537305 
L 419.736995 39.525596 
L 421.124783 39.396806 
L 421.221991 39.387699 
L 423.437359 39.2472 
L 423.528815 39.236142 
L 426.003795 39.089789 
L 426.089264 39.087188 
L 430.172276 38.914166 
L 430.248843 38.908962 
L 456.607731 38.55186 
L 472.124545 38.540803 
L 472.124545 38.540803 
" clip-path="url(#p91f6377f2d)" style="fill: none; stroke: #0072b2; stroke-width: 1.2; stroke-linecap: round"/>
   </g>
   <g id="patch_3">
    <path d="M 52.22 275.857656 
L 52.22 27.24 
" style="fill: none; stroke: #cccccc; stroke-width: 1.25; stroke-linejoin: miter; stroke-linecap: square"/>
   </g>
   <g id="patch_4">
    <path d="M 492.12 275.857656 
L 492.12 27.24 
" style="fill: none; stroke: #cccccc; stroke-width: 1.25; stroke-linejoin: miter; stroke-linecap: square"/>
   </g>
   <g id="patch_5">
    <path d="M 52.22 275.857656 
L 492.12 275.857656 
" style="fill: none; stroke: #cccccc; stroke-width: 1.25; stroke-linejoin: miter; stroke-linecap: square"/>
   </g>
   <g id="patch_6">
    <path d="M 52.22 27.24 
L 492.12 27.24 
" style="fill: none; stroke: #cccccc; stroke-width: 1.25; stroke-linejoin: miter; stroke-linecap: square"/>
   </g>
   <g id="text_14">
    <!-- First-post offset ECDF — Exp $\times$ Power-law users -->
    <g style="fill: #262626" transform="translate(129.37 21.24) scale(0.12 -0.12)">
     <defs>
      <path id="DejaVuSans-4c" d="M 603 3500 
L 1178 3500 
L 1178 0 
L 603 0 
L 603 3500 
z
M 603 4863 
L 1178 4863 
L 1178 4134 
L 603 4134 
L 603 4863 
z
" transform="scale(0.015625)"/>
      <path id="DejaVuSans-49" d="M 2375 4863 
L 2375 4384 
L 1825 4384 
Q 1516 4384 1395 4259 
Q 1275 4134 1275 3809 
L 1275 3500 
L 2222 3500 
L 2222 3053 
L 1275 3053 
L 1275 0 
L 697 0 
L 697 3053 
L 147 3053 
L 147 3500 
L 697 3500 
L 697 3744 
Q 697 4328 969 4595 
Q 1241 4863 1831 4863 
L 2375 4863 
z
" transform="scale(0.015625)"/>
      <path id="DejaVuSansDisplay-4" d="M 313 1978 
L 6088 1978 
L 6088 1528 
L 313 1528 
L 313 1978 
z
" transform="scale(0.015625)"/>
      <path id="DejaVuSans-5b" d="M 3513 3500 
L 2247 1797 
L 3578 0 
L 2900 0 
L 1881 1375 
L 863 0 
L 184 0 
L 1544 1831 
L 300 3500 
L 978 3500 
L 1906 2253 
L 2834 3500 
L 3513 3500 
z
" transform="scale(0.015625)"/>
      <path id="DejaVuSans-99" d="M 4488 3438 
L 3059 2003 
L 4488 575 
L 4116 197 
L 2681 1631 
L 1247 197 
L 878 575 
L 2303 2003 
L 878 3438 
L 1247 3816 
L 2681 2381 
L 4116 3816 
L 4488 3438 
z
" transform="scale(0.015625)"/>
      <path id="DejaVuSans-33" d="M 1259 4147 
L 1259 2394 
L 2053 2394 
Q 2494 2394 2734 2622 
Q 2975 2850 2975 3272 
Q 2975 3691 2734 3919 
Q 2494 4147 2053 4147 
L 1259 4147 
z
M 628 4666 
L 2053 4666 
Q 2838 4666 3239 4311 
Q 3641 3956 3641 3272 
Q 3641 2581 3239 2228 
Q 2838 1875 2053 1875 
L 1259 1875 
L 1259 0 
L 628 0 
L 628 4666 
z
" transform="scale(0.015625)"/>
      <path id="DejaVuSans-5a" d="M 269 3500 
L 844 3500 
L 1563 769 
L 2278 3500 
L 2956 3500 
L 3675 769 
L 4391 3500 
L 4966 3500 
L 4050 0 
L 3372 0 
L 2619 2869 
L 1863 0 
L 1184 0 
L 269 3500 
z
" transform="scale(0.015625)"/>
      <path id="DejaVuSans-4f" d="M 603 4863 
L 1178 4863 
L 1178 0 
L 603 0 
L 603 4863 
z
" transform="scale(0.015625)"/>
      <path id="DejaVuSans-44" d="M 2194 1759 
Q 1497 1759 1228 1600 
Q 959 1441 959 1056 
Q 959 750 1161 570 
Q 1363 391 1709 391 
Q 2188 391 2477 730 
Q 2766 1069 2766 1631 
L 2766 1759 
L 2194 1759 
z
M 3341 1997 
L 3341 0 
L 2766 0 
L 2766 531 
Q 2569 213 2275 61 
Q 1981 -91 1556 -91 
Q 1019 -91 701 211 
Q 384 513 384 1019 
Q 384 1609 779 1909 
Q 1175 2209 1959 2209 
L 2766 2209 
L 2766 2266 
Q 2766 2663 2505 2880 
Q 2244 3097 1772 3097 
Q 1472 3097 1187 3025 
Q 903 2953 641 2809 
L 641 3341 
Q 956 3463 1253 3523 
Q 1550 3584 1831 3584 
Q 2591 3584 2966 3190 
Q 3341 2797 3341 1997 
z
" transform="scale(0.015625)"/>
      <path id="DejaVuSans-58" d="M 544 1381 
L 544 3500 
L 1119 3500 
L 1119 1403 
Q 1119 906 1312 657 
Q 1506 409 1894 409 
Q 2359 409 2629 706 
Q 2900 1003 2900 1516 
L 2900 3500 
L 3475 3500 
L 3475 0 
L 2900 0 
L 2900 538 
Q 2691 219 2414 64 
Q 2138 -91 1772 -91 
Q 1169 -91 856 284 
Q 544 659 544 1381 
z
M 1991 3584 
L 1991 3584 
z
" transform="scale(0.015625)"/>
     </defs>
     <use xlink:href="#DejaVuSans-29" transform="translate(0 0.015625)"/>
     <use xlink:href="#DejaVuSans-4c" transform="translate(50.519531 0.015625)"/>
     <use xlink:href="#DejaVuSans-55" transform="translate(78.302734 0.015625)"/>
     <use xlink:href="#DejaVuSans-56" transform="translate(119.416016 0.015625)"/>
     <use xlink:href="#DejaVuSans-57" transform="translate(171.515625 0.015625)"/>
     <use xlink:href="#DejaVuSans-10" transform="translate(210.724609 0.015625)"/>
     <use xlink:href="#DejaVuSans-53" transform="translate(246.808594 0.015625)"/>
     <use xlink:href="#DejaVuSans-52" transform="translate(310.285156 0.015625)"/>
     <use xlink:href="#DejaVuSans-56" transform="translate(371.466797 0.015625)"/>
     <use xlink:href="#DejaVuSans-57" transform="translate(423.566406 0.015625)"/>
     <use xlink:href="#DejaVuSans-3" transform="translate(462.775391 0.015625)"/>
     <use xlink:href="#DejaVuSans-52" transform="translate(494.5625 0.015625)"/>
     <use xlink:href="#DejaVuSans-49" transform="translate(555.744141 0.015625)"/>
     <use xlink:href="#DejaVuSans-49" transform="translate(590.949219 0.015625)"/>
     <use xlink:href="#DejaVuSans-56" transform="translate(626.154297 0.015625)"/>
     <use xlink:href="#DejaVuSans-48" transform="translate(678.253906 0.015625)"/>
     <use xlink:href="#DejaVuSans-57" transform="translate(739.777344 0.015625)"/>
     <use xlink:href="#DejaVuSans-3" transform="translate(778.986328 0.015625)"/>
     <use xlink:href="#DejaVuSans-28" transform="translate(810.773438 0.015625)"/>
     <use xlink:href="#DejaVuSans-26" transform="translate(873.957031 0.015625)"/>
     <use xlink:href="#DejaVuSans-27" transform="translate(943.78125 0.015625)"/>
     <use xlink:href="#DejaVuSans-29" transform="translate(1020.783203 0.015625)"/>
     <use xlink:href="#DejaVuSans-3" transform="translate(1078.302734 0.015625)"/>
     <use xlink:href="#DejaVuSansDisplay-4" transform="translate(1110.089844 0.015625)"/>
     <use xlink:href="#DejaVuSans-3" transform="translate(1210.089844 0.015625)"/>
     <use xlink:href="#DejaVuSans-28" transform="translate(1241.876953 0.015625)"/>
     <use xlink:href="#DejaVuSans-5b" transform="translate(1305.060547 0.015625)"/>
     <use xlink:href="#DejaVuSans-53" transform="translate(1364.240234 0.015625)"/>
     <use xlink:href="#DejaVuSans-3" transform="translate(1427.716797 0.015625)"/>
     <use xlink:href="#DejaVuSans-99" transform="translate(1459.503906 0.015625)"/>
     <use xlink:href="#DejaVuSans-3" transform="translate(1543.292969 0.015625)"/>
     <use xlink:href="#DejaVuSans-33" transform="translate(1575.080078 0.015625)"/>
     <use xlink:href="#DejaVuSans-52" transform="translate(1631.382812 0.015625)"/>
     <use xlink:href="#DejaVuSans-5a" transform="translate(1692.564453 0.015625)"/>
     <use xlink:href="#DejaVuSans-48" transform="translate(1774.351562 0.015625)"/>
     <use xlink:href="#DejaVuSans-55" transform="translate(1835.875 0.015625)"/>
     <use xlink:href="#DejaVuSans-10" transform="translate(1870.988281 0.015625)"/>
     <use xlink:href="#DejaVuSans-4f" transform="translate(1907.072266 0.015625)"/>
     <use xlink:href="#DejaVuSans-44" transform="translate(1934.855469 0.015625)"/>
     <use xlink:href="#DejaVuSans-5a" transform="translate(1996.134766 0.015625)"/>
     <use xlink:href="#DejaVuSans-3" transform="translate(2077.921875 0.015625)"/>
     <use xlink:href="#DejaVuSans-58" transform="translate(2109.708984 0.015625)"/>
     <use xlink:href="#DejaVuSans-56" transform="translate(2173.087891 0.015625)"/>
     <use xlink:href="#DejaVuSans-48" transform="translate(2225.1875 0.015625)"/>
     <use xlink:href="#DejaVuSans-55" transform="translate(2286.710938 0.015625)"/>
     <use xlink:href="#DejaVuSans-56" transform="translate(2327.824219 0.015625)"/>
    </g>
   </g>
  </g>
 </g>
 <defs>
  <clipPath id="p91f6377f2d">
   <rect x="52.22" y="27.24" width="439.9" height="248.617656"/>
  </clipPath>
 </defs>
</svg>
