<?xml version="1.0" encoding="utf-8" standalone="no"?>
<!DOCTYPE svg PUBLIC "-//W3C//DTD SVG 1.1//EN"
  "http://www.w3.org/Graphics/SVG/1.1/DTD/svg11.dtd">
<svg xmlns:xlink="http://www.w3.org/1999/xlink" width="504pt" height="324pt" viewBox="0 0 504 324" xmlns="http://www.w3.org/2000/svg" version="1.1">
 <metadata>
  <rdf:RDF xmlns:dc="http://purl.org/dc/elements/1.1/" xmlns:cc="http://creativecommons.org/ns#" xmlns:rdf="http://www.w3.org/1999/02/22-rdf-syntax-ns#">
   <cc:Work>
    <dc:type rdf:resource="http://purl.org/dc/dcmitype/StillImage"/>
    <dc:date>2026-09-10T14:12:38.063103</dc:date>
    <dc:format>image/svg+xml</dc:format>
    <dc:creator>
     <cc:Agent>
      <dc:title>Matplotlib v3.11.1, https://matplotlib.org/</dc:title>
     </cc:Agent>
    </dc:creator>
   </cc:Work>
  </rdf:RDF>
 </metadata>
 <defs>
  <style type="text/css">*{stroke-linejoin: round; stroke-linecap: butt}</style>
 </defs>
 <g id="figure_1">
  <g id="patch_1">
   <path d="M 0 324 
L 504 324 
L 504 0 
L 0 0 
z
" style="fill: #ffffff"/>
  </g>
  <g id="axes_1">
   <g id="patch_2">
    <path d="M 52.22 275.857656 
L 492.12 275.857656 
L 492.12 27.24 
L 52.22 27.24 
z
" style="fill: #ffffff"/>
   </g>
   <g id="matplotlib.axis_1">
    <g id="xtick_1">
     <g id="line2d_1">
      <path d="M 72.215455 275.857656 
L 72.215455 27.24 
" clip-path="url(#pc3d61b3bf0)" style="fill: none; stroke: #cccccc; stroke-linecap: round"/>
     </g>
     <g id="text_1">
      <!-- $\mathdefault{0}$ -->
      <g style="fill: #262626" transform="translate(69.015455 292.955312) scale(0.1 -0.1)">
       <defs>
        <path id="DejaVuSans-13" d="M 2034 4250 
Q 1547 4250 1301 3770 
Q 1056 3291 1056 2328 
Q 1056 1369 1301 889 
Q 1547 409 2034 409 
Q 2525 409 2770 889 
Q 3016 1369 3016 2328 
Q 3016 3291 2770 3770 
Q 2525 4250 2034 4250 
z
M 2034 4750 
Q 2819 4750 3233 4129 
Q 3647 3509 3647 2328 
Q 3647 1150 3233 529 
Q 2819 -91 2034 -91 
Q 1250 -91 836 529 
Q 422 1150 422 2328 
Q 422 3509 836 4129 
Q 1250 4750 2034 4750 
z
" transform="scale(0.015625)"/>
       </defs>
       <use xlink:href="#DejaVuSans-13" transform="translate(0 0.78125)"/>
      </g>
     </g>
    </g>
    <g id="xtick_2">
     <g id="line2d_2">
      <path d="M 156.665352 275.857656 
L 156.665352 27.24 
" clip-path="url(#pc3d61b3bf0)" style="fill: none; stroke: #cccccc; stroke-linecap: round"/>
     </g>
     <g id="text_2">
      <!-- $\mathdefault{10^{0}}$ -->
      <g style="fill: #262626" transform="translate(147.865352 294.757656) scale(0.1 -0.1)">
       <defs>
        <path id="DejaVuSans-14" d="M 794 531 
L 1825 531 
L 1825 4091 
L 703 3866 
L 703 4441 
L 1819 4666 
L 2450 4666 
L 2450 531 
L 3481 531 
L 3481 0 
L 794 0 
L 794 531 
z
" transform="scale(0.015625)"/>
       </defs>
       <use xlink:href="#DejaVuSans-14" transform="translate(0 0.746875)"/>
       <use xlink:href="#DejaVuSans-13" transform="translate(63.623047 0.746875)"/>
       <use xlink:href="#DejaVuSans-13" transform="translate(128.203125 42.046875) scale(0.7)"/>
      </g>
     </g>
    </g>
    <g id="xtick_3">
     <g id="line2d_3">
      <path d="M 232.67026 275.857656 
L 232.67026 27.24 
" clip-path="url(#pc3d61b3bf0)" style="fill: none; stroke: #cccccc; stroke-linecap: round"/>
     </g>
     <g id="text_3">
      <!-- $\mathdefault{10^{1}}$ -->
      <g style="fill: #262626" transform="translate(223.87026 294.657656) scale(0.1 -0.1)">
       <use xlink:href="#DejaVuSans-14" transform="translate(0 0.665625)"/>
       <use xlink:href="#DejaVuSans-13" transform="translate(63.623047 0.665625)"/>
       <use xlink:href="#DejaVuSans-14" transform="translate(128.203125 41.965625) scale(0.7)"/>
      </g>
     </g>
    </g>
    <g id="xtick_4">
     <g id="line2d_4">
      <path d="M 308.675168 275.857656 
L 308.675168 27.24 
" clip-path="url(#pc3d61b3bf0)" style="fill: none; stroke: #cccccc; stroke-linecap: round"/>
     </g>
     <g id="text_4">
      <!-- $\mathdefault{10^{2}}$ -->
      <g style="fill: #262626" transform="translate(299.875168 294.757656) scale(0.1 -0.1)">
       <defs>
        <path id="DejaVuSans-15" d="M 1228 531 
L 3431 531 
L 3431 0 
L 469 0 
L 469 531 
Q 828 903 1448 1529 
Q 2069 2156 2228 2338 
Q 2531 2678 2651 2914 
Q 2772 3150 2772 3378 
Q 2772 3750 2511 3984 
Q 2250 4219 1831 4219 
Q 1534 4219 1204 4116 
Q 875 4013 500 3803 
L 500 4441 
Q 881 4594 1212 4672 
Q 1544 4750 1819 4750 
Q 2544 4750 2975 4387 
Q 3406 4025 3406 3419 
Q 3406 3131 3298 2873 
Q 3191 2616 2906 2266 
Q 2828 2175 2409 1742 
Q 1991 1309 1228 531 
z
" transform="scale(0.015625)"/>
       </defs>
       <use xlink:href="#DejaVuSans-14" transform="translate(0 0.746875)"/>
       <use xlink:href="#DejaVuSans-13" transform="translate(63.623047 0.746875)"/>
       <use xlink:href="#DejaVuSans-15" transform="translate(128.203125 42.046875) scale(0.7)"/>
      </g>
     </g>
    </g>
    <g id="xtick_5">
     <g id="line2d_5">
      <path d="M 384.680076 275.857656 
L 384.680076 27.24 
" clip-path="url(#pc3d61b3bf0)" style="fill: none; stroke: #cccccc; stroke-linecap: round"/>
     </g>
     <g id="text_5">
      <!-- $\mathdefault{10^{3}}$ -->
      <g style="fill: #262626" transform="translate(375.880076 294.757656) scale(0.1 -0.1)">
       <defs>
        <path id="DejaVuSans-16" d="M 2597 2516 
Q 3050 2419 3304 2112 
Q 3559 1806 3559 1356 
Q 3559 666 3084 287 
Q 2609 -91 1734 -91 
Q 1441 -91 1130 -33 
Q 819 25 488 141 
L 488 750 
Q 750 597 1062 519 
Q 1375 441 1716 441 
Q 2309 441 2620 675 
Q 2931 909 2931 1356 
Q 2931 1769 2642 2001 
Q 2353 2234 1838 2234 
L 1294 2234 
L 1294 2753 
L 1863 2753 
Q 2328 2753 2575 2939 
Q 2822 3125 2822 3475 
Q 2822 3834 2567 4026 
Q 2313 4219 1838 4219 
Q 1578 4219 1281 4162 
Q 984 4106 628 3988 
L 628 4550 
Q 988 4650 1302 4700 
Q 1616 4750 1894 4750 
Q 2613 4750 3031 4423 
Q 3450 4097 3450 3541 
Q 3450 3153 3228 2886 
Q 3006 2619 2597 2516 
z
" transform="scale(0.015625)"/>
       </defs>
       <use xlink:href="#DejaVuSans-14" transform="translate(0 0.746875)"/>
       <use xlink:href="#DejaVuSans-13" transform="translate(63.623047 0.746875)"/>
       <use xlink:href="#DejaVuSans-16" transform="translate(128.203125 42.046875) scale(0.7)"/>
      </g>
     </g>
    </g>
    <g id="xtick_6">
     <g id="line2d_6">
      <path d="M 460.684983 275.857656 
L 460.684983 27.24 
" clip-path="url(#pc3d61b3bf0)" style="fill: none; stroke: #cccccc; stroke-linecap: round"/>
     </g>
     <g id="text_6">
      <!-- $\mathdefault{10^{4}}$ -->
      <g style="fill: #262626" transform="translate(451.884983 294.657656) scale(0.1 -0.1)">
       <defs>
        <path id="DejaVuSans-17" d="M 2419 4116 
L 825 1625 
L 2419 1625 
L 2419 4116 
z
M 2253 4666 
L 3047 4666 
L 3047 1625 
L 3713 1625 
L 3713 1100 
L 3047 1100 
L 3047 0 
L 2419 0 
L 2419 1100 
L 313 1100 
L 313 1709 
L 2253 4666 
z
" transform="scale(0.015625)"/>
       </defs>
       <use xlink:href="#DejaVuSans-14" transform="translate(0 0.665625)"/>
       <use xlink:href="#DejaVuSans-13" transform="translate(63.623047 0.665625)"/>
       <use xlink:href="#DejaVuSans-17" transform="translate(128.203125 41.965625) scale(0.7)"/>
      </g>
     </g>
    </g>
    <g id="text_7">
     <!-- first-post offset (s) -->
     <g style="fill: #262626" transform="translate(221.348281 309.518281) scale(0.11 -0.11)">
      <defs>
       <path id="DejaVuSans-13af" d="M 3431 3500 
L 3431 0 
L 2853 0 
L 2853 3053 
L 1275 3053 
L 1275 0 
L 697 0 
L 697 3053 
L 147 3053 
L 147 3500 
L 697 3500 
L 697 3744 
Q 697 4316 967 4589 
Q 1238 4863 1797 4863 
L 2375 4863 
L 2375 4384 
L 1825 4384 
Q 1516 4384 1395 4259 
Q 1275 4134 1275 3809 
L 1275 3500 
L 3431 3500 
z
M 2853 4856 
L 3431 4856 
L 3431 4128 
L 2853 4128 
L 2853 4856 
z
" transform="scale(0.015625)"/>
       <path id="DejaVuSans-55" d="M 2631 2963 
Q 2534 3019 2420 3045 
Q 2306 3072 2169 3072 
Q 1681 3072 1420 2755 
Q 1159 2438 1159 1844 
L 1159 0 
L 581 0 
L 581 3500 
L 1159 3500 
L 1159 2956 
Q 1341 3275 1631 3429 
Q 1922 3584 2338 3584 
Q 2397 3584 2469 3576 
Q 2541 3569 2628 3553 
L 2631 2963 
z
" transform="scale(0.015625)"/>
       <path id="DejaVuSans-56" d="M 2834 3397 
L 2834 2853 
Q 2591 2978 2328 3040 
Q 2066 3103 1784 3103 
Q 1356 3103 1142 2972 
Q 928 2841 928 2578 
Q 928 2378 1081 2264 
Q 1234 2150 1697 2047 
L 1894 2003 
Q 2506 1872 2764 1633 
Q 3022 1394 3022 966 
Q 3022 478 2636 193 
Q 2250 -91 1575 -91 
Q 1294 -91 989 -36 
Q 684 19 347 128 
L 347 722 
Q 666 556 975 473 
Q 1284 391 1588 391 
Q 1994 391 2212 530 
Q 2431 669 2431 922 
Q 2431 1156 2273 1281 
Q 2116 1406 1581 1522 
L 1381 1569 
Q 847 1681 609 1914 
Q 372 2147 372 2553 
Q 372 3047 722 3315 
Q 1072 3584 1716 3584 
Q 2034 3584 2315 3537 
Q 2597 3491 2834 3397 
z
" transform="scale(0.015625)"/>
       <path id="DejaVuSans-57" d="M 1172 4494 
L 1172 3500 
L 2356 3500 
L 2356 3053 
L 1172 3053 
L 1172 1153 
Q 1172 725 1289 603 
Q 1406 481 1766 481 
L 2356 481 
L 2356 0 
L 1766 0 
Q 1100 0 847 248 
Q 594 497 594 1153 
L 594 3053 
L 172 3053 
L 172 3500 
L 594 3500 
L 594 4494 
L 1172 4494 
z
" transform="scale(0.015625)"/>
       <path id="DejaVuSans-10" d="M 313 2009 
L 1997 2009 
L 1997 1497 
L 313 1497 
L 313 2009 
z
" transform="scale(0.015625)"/>
       <path id="DejaVuSans-53" d="M 1159 525 
L 1159 -1331 
L 581 -1331 
L 581 3500 
L 1159 3500 
L 1159 2969 
Q 1341 3281 1617 3432 
Q 1894 3584 2278 3584 
Q 2916 3584 3314 3078 
Q 3713 2572 3713 1747 
Q 3713 922 3314 415 
Q 2916 -91 2278 -91 
Q 1894 -91 1617 61 
Q 1341 213 1159 525 
z
M 3116 1747 
Q 3116 2381 2855 2742 
Q 2594 3103 2138 3103 
Q 1681 3103 1420 2742 
Q 1159 2381 1159 1747 
Q 1159 1113 1420 752 
Q 1681 391 2138 391 
Q 2594 391 2855 752 
Q 3116 1113 3116 1747 
z
" transform="scale(0.015625)"/>
       <path id="DejaVuSans-52" d="M 1959 3097 
Q 1497 3097 1228 2736 
Q 959 2375 959 1747 
Q 959 1119 1226 758 
Q 1494 397 1959 397 
Q 2419 397 2687 759 
Q 2956 1122 2956 1747 
Q 2956 2369 2687 2733 
Q 2419 3097 1959 3097 
z
M 1959 3584 
Q 2709 3584 3137 3096 
Q 3566 2609 3566 1747 
Q 3566 888 3137 398 
Q 2709 -91 1959 -91 
Q 1206 -91 779 398 
Q 353 888 353 1747 
Q 353 2609 779 3096 
Q 1206 3584 1959 3584 
z
" transform="scale(0.015625)"/>
       <path id="DejaVuSans-3" transform="scale(0.015625)"/>
       <path id="DejaVuSans-13ae" d="M 4531 4863 
L 4531 4384 
L 3981 4384 
Q 3672 4384 3551 4259 
Q 3431 4134 3431 3809 
L 3431 3500 
L 4378 3500 
L 4378 3053 
L 3431 3053 
L 3431 0 
L 2853 0 
L 2853 3053 
L 1275 3053 
L 1275 0 
L 697 0 
L 697 3053 
L 147 3053 
L 147 3500 
L 697 3500 
L 697 3744 
Q 697 4328 969 4595 
Q 1241 4863 1831 4863 
L 2375 4863 
L 2375 4384 
L 1825 4384 
Q 1516 4384 1394 4259 
Q 1275 4134 1275 3809 
L 1275 3500 
L 2853 3500 
L 2853 3744 
Q 2853 4328 3125 4595 
Q 3397 4863 3988 4863 
L 4531 4863 
z
" transform="scale(0.015625)"/>
       <path id="DejaVuSans-48" d="M 3597 1894 
L 3597 1613 
L 953 1613 
Q 991 1019 1311 708 
Q 1631 397 2203 397 
Q 2534 397 2845 478 
Q 3156 559 3463 722 
L 3463 178 
Q 3153 47 2828 -22 
Q 2503 -91 2169 -91 
Q 1331 -91 842 396 
Q 353 884 353 1716 
Q 353 2575 817 3079 
Q 1281 3584 2069 3584 
Q 2775 3584 3186 3129 
Q 3597 2675 3597 1894 
z
M 3022 2063 
Q 3016 2534 2758 2815 
Q 2500 3097 2075 3097 
Q 1594 3097 1305 2825 
Q 1016 2553 972 2059 
L 3022 2063 
z
" transform="scale(0.015625)"/>
       <path id="DejaVuSans-b" d="M 1984 4856 
Q 1566 4138 1362 3434 
Q 1159 2731 1159 2009 
Q 1159 1288 1364 580 
Q 1569 -128 1984 -844 
L 1484 -844 
Q 1016 -109 783 600 
Q 550 1309 550 2009 
Q 550 2706 781 3412 
Q 1013 4119 1484 4856 
L 1984 4856 
z
" transform="scale(0.015625)"/>
       <path id="DejaVuSans-c" d="M 513 4856 
L 1013 4856 
Q 1481 4119 1714 3412 
Q 1947 2706 1947 2009 
Q 1947 1309 1714 600 
Q 1481 -109 1013 -844 
L 513 -844 
Q 928 -128 1133 580 
Q 1338 1288 1338 2009 
Q 1338 2731 1133 3434 
Q 928 4138 513 4856 
z
" transform="scale(0.015625)"/>
      </defs>
      <use xlink:href="#DejaVuSans-13af"/>
      <use xlink:href="#DejaVuSans-55" transform="translate(62.984375 0)"/>
      <use xlink:href="#DejaVuSans-56" transform="translate(104.09375 0)"/>
      <use xlink:href="#DejaVuSans-57" transform="translate(156.1875 0)"/>
      <use xlink:href="#DejaVuSans-10" transform="translate(195.390625 0)"/>
      <use xlink:href="#DejaVuSans-53" transform="translate(231.46875 0)"/>
      <use xlink:href="#DejaVuSans-52" transform="translate(294.953125 0)"/>
      <use xlink:href="#DejaVuSans-56" transform="translate(356.140625 0)"/>
      <use xlink:href="#DejaVuSans-57" transform="translate(408.234375 0)"/>
      <use xlink:href="#DejaVuSans-3" transform="translate(447.4375 0)"/>
      <use xlink:href="#DejaVuSans-52" transform="translate(479.21875 0)"/>
      <use xlink:href="#DejaVuSans-13ae" transform="translate(540.40625 0)"/>
      <use xlink:href="#DejaVuSans-56" transform="translate(609.296875 0)"/>
      <use xlink:href="#DejaVuSans-48" transform="translate(661.390625 0)"/>
      <use xlink:href="#DejaVuSans-57" transform="translate(722.921875 0)"/>
      <use xlink:href="#DejaVuSans-3" transform="translate(762.125 0)"/>
      <use xlink:href="#DejaVuSans-b" transform="translate(793.90625 0)"/>
      <use xlink:href="#DejaVuSans-56" transform="translate(832.921875 0)"/>
      <use xlink:href="#DejaVuSans-c" transform="translate(885.015625 0)"/>
     </g>
    </g>
   </g>
   <g id="matplotlib.axis_2">
    <g id="ytick_1">
     <g id="line2d_7">
      <path d="M 52.22 264.557108 
L 492.12 264.557108 
" clip-path="url(#pc3d61b3bf0)" style="fill: none; stroke: #cccccc; stroke-linecap: round"/>
     </g>
     <g id="text_8">
      <!-- 0.0 -->
      <g style="fill: #262626" transform="translate(26.816875 268.355936) scale(0.1 -0.1)">
       <defs>
        <path id="DejaVuSans-11" d="M 684 794 
L 1344 794 
L 1344 0 
L 684 0 
L 684 794 
z
" transform="scale(0.015625)"/>
       </defs>
       <use xlink:href="#DejaVuSans-13"/>
       <use xlink:href="#DejaVuSans-11" transform="translate(63.625 0)"/>
       <use xlink:href="#DejaVuSans-13" transform="translate(95.40625 0)"/>
      </g>
     </g>
    </g>
    <g id="ytick_2">
     <g id="line2d_8">
      <path d="M 52.22 219.353847 
L 492.12 219.353847 
" clip-path="url(#pc3d61b3bf0)" style="fill: none; stroke: #cccccc; stroke-linecap: round"/>
     </g>
     <g id="text_9">
      <!-- 0.2 -->
      <g style="fill: #262626" transform="translate(26.816875 223.152675) scale(0.1 -0.1)">
       <use xlink:href="#DejaVuSans-13"/>
       <use xlink:href="#DejaVuSans-11" transform="translate(63.625 0)"/>
       <use xlink:href="#DejaVuSans-15" transform="translate(95.40625 0)"/>
      </g>
     </g>
    </g>
    <g id="ytick_3">
     <g id="line2d_9">
      <path d="M 52.22 174.150586 
L 492.12 174.150586 
" clip-path="url(#pc3d61b3bf0)" style="fill: none; stroke: #cccccc; stroke-linecap: round"/>
     </g>
     <g id="text_10">
      <!-- 0.4 -->
      <g style="fill: #262626" transform="translate(26.816875 177.949414) scale(0.1 -0.1)">
       <use xlink:href="#DejaVuSans-13"/>
       <use xlink:href="#DejaVuSans-11" transform="translate(63.625 0)"/>
       <use xlink:href="#DejaVuSans-17" transform="translate(95.40625 0)"/>
      </g>
     </g>
    </g>
    <g id="ytick_4">
     <g id="line2d_10">
      <path d="M 52.22 128.947325 
L 492.12 128.947325 
" clip-path="url(#pc3d61b3bf0)" style="fill: none; stroke: #cccccc; stroke-linecap: round"/>
     </g>
     <g id="text_11">
      <!-- 0.6 -->
      <g style="fill: #262626" transform="translate(26.816875 132.746153) scale(0.1 -0.1)">
       <defs>
        <path id="DejaVuSans-19" d="M 2113 2584 
Q 1688 2584 1439 2293 
Q 1191 2003 1191 1497 
Q 1191 994 1439 701 
Q 1688 409 2113 409 
Q 2538 409 2786 701 
Q 3034 994 3034 1497 
Q 3034 2003 2786 2293 
Q 2538 2584 2113 2584 
z
M 3366 4563 
L 3366 3988 
Q 3128 4100 2886 4159 
Q 2644 4219 2406 4219 
Q 1781 4219 1451 3797 
Q 1122 3375 1075 2522 
Q 1259 2794 1537 2939 
Q 1816 3084 2150 3084 
Q 2853 3084 3261 2657 
Q 3669 2231 3669 1497 
Q 3669 778 3244 343 
Q 2819 -91 2113 -91 
Q 1303 -91 875 529 
Q 447 1150 447 2328 
Q 447 3434 972 4092 
Q 1497 4750 2381 4750 
Q 2619 4750 2861 4703 
Q 3103 4656 3366 4563 
z
" transform="scale(0.015625)"/>
       </defs>
       <use xlink:href="#DejaVuSans-13"/>
       <use xlink:href="#DejaVuSans-11" transform="translate(63.625 0)"/>
       <use xlink:href="#DejaVuSans-19" transform="translate(95.40625 0)"/>
      </g>
     </g>
    </g>
    <g id="ytick_5">
     <g id="line2d_11">
      <path d="M 52.22 83.744064 
L 492.12 83.744064 
" clip-path="url(#pc3d61b3bf0)" style="fill: none; stroke: #cccccc; stroke-linecap: round"/>
     </g>
     <g id="text_12">
      <!-- 0.8 -->
      <g style="fill: #262626" transform="translate(26.816875 87.542892) scale(0.1 -0.1)">
       <defs>
        <path id="DejaVuSans-1b" d="M 2034 2216 
Q 1584 2216 1326 1975 
Q 1069 1734 1069 1313 
Q 1069 891 1326 650 
Q 1584 409 2034 409 
Q 2484 409 2743 651 
Q 3003 894 3003 1313 
Q 3003 1734 2745 1975 
Q 2488 2216 2034 2216 
z
M 1403 2484 
Q 997 2584 770 2862 
Q 544 3141 544 3541 
Q 544 4100 942 4425 
Q 1341 4750 2034 4750 
Q 2731 4750 3128 4425 
Q 3525 4100 3525 3541 
Q 3525 3141 3298 2862 
Q 3072 2584 2669 2484 
Q 3125 2378 3379 2068 
Q 3634 1759 3634 1313 
Q 3634 634 3220 271 
Q 2806 -91 2034 -91 
Q 1263 -91 848 271 
Q 434 634 434 1313 
Q 434 1759 690 2068 
Q 947 2378 1403 2484 
z
M 1172 3481 
Q 1172 3119 1398 2916 
Q 1625 2713 2034 2713 
Q 2441 2713 2670 2916 
Q 2900 3119 2900 3481 
Q 2900 3844 2670 4047 
Q 2441 4250 2034 4250 
Q 1625 4250 1398 4047 
Q 1172 3844 1172 3481 
z
" transform="scale(0.015625)"/>
       </defs>
       <use xlink:href="#DejaVuSans-13"/>
       <use xlink:href="#DejaVuSans-11" transform="translate(63.625 0)"/>
       <use xlink:href="#DejaVuSans-1b" transform="translate(95.40625 0)"/>
      </g>
     </g>
    </g>
    <g id="ytick_6">
     <g id="line2d_12">
      <path d="M 52.22 38.540803 
L 492.12 38.540803 
" clip-path="url(#pc3d61b3bf0)" style="fill: none; stroke: #cccccc; stroke-linecap: round"/>
     </g>
     <g id="text_13">
      <!-- 1.0 -->
      <g style="fill: #262626" transform="translate(26.816875 42.339631) scale(0.1 -0.1)">
       <use xlink:href="#DejaVuSans-14"/>
       <use xlink:href="#DejaVuSans-11" transform="translate(63.625 0)"/>
       <use xlink:href="#DejaVuSans-13" transform="translate(95.40625 0)"/>
      </g>
     </g>
    </g>
    <g id="text_14">
     <!-- ECDF -->
     <g style="fill: #262626" transform="translate(20.174297 166.263047) rotate(-90) scale(0.11 -0.11)">
      <defs>
       <path id="DejaVuSans-28" d="M 628 4666 
L 3578 4666 
L 3578 4134 
L 1259 4134 
L 1259 2753 
L 3481 2753 
L 3481 2222 
L 1259 2222 
L 1259 531 
L 3634 531 
L 3634 0 
L 628 0 
L 628 4666 
z
" transform="scale(0.015625)"/>
       <path id="DejaVuSans-26" d="M 4122 4306 
L 4122 3641 
Q 3803 3938 3442 4084 
Q 3081 4231 2675 4231 
Q 1875 4231 1450 3742 
Q 1025 3253 1025 2328 
Q 1025 1406 1450 917 
Q 1875 428 2675 428 
Q 3081 428 3442 575 
Q 3803 722 4122 1019 
L 4122 359 
Q 3791 134 3420 21 
Q 3050 -91 2638 -91 
Q 1578 -91 968 557 
Q 359 1206 359 2328 
Q 359 3453 968 4101 
Q 1578 4750 2638 4750 
Q 3056 4750 3426 4639 
Q 3797 4528 4122 4306 
z
" transform="scale(0.015625)"/>
       <path id="DejaVuSans-27" d="M 1259 4147 
L 1259 519 
L 2022 519 
Q 2988 519 3436 956 
Q 3884 1394 3884 2338 
Q 3884 3275 3436 3711 
Q 2988 4147 2022 4147 
L 1259 4147 
z
M 628 4666 
L 1925 4666 
Q 3281 4666 3915 4102 
Q 4550 3538 4550 2338 
Q 4550 1131 3912 565 
Q 3275 0 1925 0 
L 628 0 
L 628 4666 
z
" transform="scale(0.015625)"/>
       <path id="DejaVuSans-29" d="M 628 4666 
L 3309 4666 
L 3309 4134 
L 1259 4134 
L 1259 2759 
L 3109 2759 
L 3109 2228 
L 1259 2228 
L 1259 0 
L 628 0 
L 628 4666 
z
" transform="scale(0.015625)"/>
      </defs>
      <use xlink:href="#DejaVuSans-28"/>
      <use xlink:href="#DejaVuSans-26" transform="translate(63.1875 0)"/>
      <use xlink:href="#DejaVuSans-27" transform="translate(133.015625 0)"/>
      <use xlink:href="#DejaVuSans-29" transform="translate(210.015625 0)"/>
     </g>
    </g>
   </g>
   <g id="line2d_13">
    <path d="M 72.215455 264.556854 
L 72.215455 154.611714 
L 192.928909 154.500382 
L 192.928909 154.306188 
L 202.424866 154.194856 
L 202.424866 153.768086 
L 209.790503 153.656754 
L 209.790503 152.989274 
L 215.808666 152.877943 
L 215.808666 152.020589 
L 220.896951 151.909257 
L 220.896951 150.949214 
L 225.304623 150.837883 
L 225.304623 149.820903 
L 229.192466 149.709572 
L 229.192466 148.62498 
L 232.67026 148.513648 
L 232.67026 147.404909 
L 235.816307 147.293578 
L 235.816307 146.220424 
L 238.688423 146.109092 
L 238.688423 145.041276 
L 241.330514 144.929945 
L 241.330514 143.840778 
L 243.776708 143.729446 
L 243.776708 142.631129 
L 246.05406 142.519797 
L 246.05406 141.443847 
L 248.18438 141.332516 
L 248.18438 140.305877 
L 250.185509 140.194546 
L 250.185509 139.164857 
L 252.072223 139.053526 
L 252.072223 138.016466 
L 253.856902 137.905134 
L 253.856902 136.915606 
L 255.550017 136.804275 
L 255.550017 135.83076 
L 257.160508 135.719428 
L 257.160508 134.769044 
L 258.696064 134.657713 
L 258.696064 133.727409 
L 260.163351 133.616077 
L 260.163351 132.712463 
L 261.56818 132.601131 
L 261.56818 131.721155 
L 262.915654 131.609824 
L 262.915654 130.730865 
L 264.210271 130.619533 
L 264.210271 129.776414 
L 265.456023 129.665082 
L 265.456023 128.829588 
L 266.656465 128.718256 
L 266.656465 127.940207 
L 267.814777 127.828876 
L 267.814777 127.043201 
L 268.933817 126.93187 
L 268.933817 126.164496 
L 270.01616 126.053165 
L 270.01616 125.306126 
L 271.064138 125.194794 
L 271.064138 124.444451 
L 272.079864 124.333119 
L 272.079864 123.599298 
L 273.065266 123.487966 
L 273.065266 122.781088 
L 274.022102 122.669756 
L 274.022102 121.968216 
L 274.95198 121.856884 
L 274.95198 121.17034 
L 275.85638 121.059009 
L 275.85638 120.420759 
L 276.736659 120.309428 
L 276.736659 119.66457 
L 277.594071 119.553238 
L 277.594071 118.924648 
L 278.429774 118.813316 
L 278.429774 118.20811 
L 279.244841 118.096779 
L 279.244841 117.489286 
L 280.040265 117.377954 
L 280.040265 116.794862 
L 280.816972 116.683531 
L 280.816972 116.127127 
L 281.575821 116.015796 
L 281.575821 115.445667 
L 282.317617 115.334336 
L 282.317617 114.782254 
L 283.043108 114.670922 
L 283.043108 114.151376 
L 283.752996 114.040044 
L 283.752996 113.529648 
L 284.447937 113.418317 
L 284.447937 112.933338 
L 285.128549 112.822007 
L 285.128549 112.311611 
L 285.795411 112.200279 
L 285.795411 111.704117 
L 286.449066 111.592786 
L 286.449066 111.156356 
L 287.090028 111.045025 
L 287.090028 110.565639 
L 287.718781 110.454307 
L 287.718781 109.996781 
L 288.33578 109.885449 
L 288.33578 109.42589 
L 288.941458 109.314558 
L 288.941458 108.887279 
L 289.536222 108.775948 
L 289.536222 108.334689 
L 290.120459 108.223357 
L 290.120459 107.813871 
L 290.694534 107.70254 
L 290.694534 107.295595 
L 291.258796 107.184264 
L 291.258796 106.758764 
L 291.813574 106.647433 
L 291.813574 106.240488 
L 292.359182 106.129157 
L 292.359182 105.730346 
L 292.895917 105.619015 
L 292.895917 105.255281 
L 293.424065 105.14395 
L 293.424065 104.7853 
L 293.943895 104.673969 
L 293.943895 104.302101 
L 294.455665 104.19077 
L 294.455665 103.813565 
L 294.959621 103.702233 
L 294.959621 103.362139 
L 295.455999 103.250807 
L 295.455999 102.903595 
L 295.945023 102.792264 
L 295.945023 102.466149 
L 296.426908 102.354818 
L 296.426908 102.02667 
L 296.901859 101.915338 
L 296.901859 101.584648 
L 297.370072 101.473317 
L 297.370072 101.15559 
L 297.831737 101.044258 
L 297.831737 100.717635 
L 298.287034 100.606304 
L 298.287034 100.290357 
L 298.736137 100.179025 
L 298.736137 99.868161 
L 299.179211 99.75683 
L 299.179211 99.447745 
L 299.616416 99.336414 
L 299.616416 99.045884 
L 300.047906 98.934553 
L 300.047906 98.65902 
L 300.473828 98.547689 
L 300.473828 98.261481 
L 300.894324 98.150149 
L 300.894324 97.856824 
L 301.309531 97.745493 
L 301.309531 97.464622 
L 301.71958 97.353291 
L 301.71958 97.087925 
L 302.124598 96.976594 
L 302.124598 96.691402 
L 302.524706 96.580071 
L 302.524706 96.330211 
L 302.920022 96.218879 
L 302.920022 95.957072 
L 303.31066 95.845741 
L 303.31066 95.588509 
L 303.696729 95.477178 
L 303.696729 95.244602 
L 304.078334 95.13327 
L 304.078334 94.875022 
L 304.455578 94.763691 
L 304.455578 94.520439 
L 304.82856 94.409108 
L 304.82856 94.155181 
L 305.197374 94.043849 
L 305.197374 93.816865 
L 305.562113 93.705534 
L 305.562113 93.461265 
L 305.922865 93.349934 
L 305.922865 93.129559 
L 306.279717 93.018227 
L 306.279717 92.794548 
L 306.632753 92.683216 
L 306.632753 92.465637 
L 306.982052 92.354305 
L 306.982052 92.135201 
L 307.327695 92.02387 
L 307.327695 91.798919 
L 307.669755 91.687588 
L 307.669755 91.478651 
L 308.008306 91.367319 
L 308.008306 91.159145 
L 308.343421 91.047813 
L 308.343421 90.847264 
L 308.675168 90.735933 
L 308.675168 90.528266 
L 309.003613 90.416935 
L 309.003613 90.216894 
L 309.328823 90.105563 
L 309.328823 89.898659 
L 309.65086 89.787328 
L 309.65086 89.575849 
L 309.969785 89.464517 
L 309.969785 89.254563 
L 310.285659 89.143232 
L 310.285659 88.946241 
L 310.598538 88.83491 
L 310.598538 88.643257 
L 310.908479 88.531926 
L 310.908479 88.332139 
L 311.215537 88.220808 
L 311.215537 88.032968 
L 311.519765 87.921636 
L 311.519765 87.739642 
L 311.821215 87.628311 
L 311.821215 87.442504 
L 312.119937 87.331173 
L 312.119937 87.151213 
L 312.415979 87.039881 
L 312.415979 86.860683 
L 312.70939 86.749352 
L 312.70939 86.595826 
L 313.000216 86.484495 
L 313.000216 86.311397 
L 313.288502 86.200066 
L 313.288502 86.040186 
L 313.574291 85.928854 
L 313.574291 85.753977 
L 313.857628 85.642646 
L 313.857628 85.475395 
L 314.138553 85.364063 
L 314.138553 85.204437 
L 314.417108 85.093106 
L 314.417108 84.938309 
L 314.693331 84.826978 
L 314.693331 84.672182 
L 314.967262 84.56085 
L 314.967262 84.415204 
L 315.238939 84.303873 
L 315.238939 84.150347 
L 315.508398 84.039016 
L 315.508398 83.890574 
L 315.775674 83.779242 
L 315.775674 83.640459 
L 316.040804 83.529128 
L 316.040804 83.392124 
L 316.303822 83.280793 
L 316.303822 83.141501 
L 316.56476 83.03017 
L 316.56476 82.88732 
L 316.823652 82.775988 
L 316.823652 82.641272 
L 317.080529 82.529941 
L 317.080529 82.398021 
L 317.335422 82.286689 
L 317.335422 82.16214 
L 317.588362 82.050809 
L 317.588362 81.904146 
L 317.839378 81.792815 
L 317.839378 81.664707 
L 318.0885 81.553376 
L 318.0885 81.427556 
L 318.335756 81.316225 
L 318.335756 81.186592 
L 318.581174 81.075261 
L 318.581174 80.960371 
L 318.82478 80.849039 
L 318.82478 80.718136 
L 319.066602 80.606804 
L 319.066602 80.493948 
L 319.306665 80.382617 
L 319.306665 80.268743 
L 319.544995 80.157412 
L 319.544995 80.040488 
L 319.781616 79.929157 
L 319.781616 79.810963 
L 320.016553 79.699631 
L 320.016553 79.583216 
L 320.249829 79.471885 
L 320.249829 79.363858 
L 320.481469 79.252526 
L 320.481469 79.134586 
L 320.711494 79.023254 
L 320.711494 78.905823 
L 320.939928 78.794491 
L 320.939928 78.68621 
L 321.166791 78.574879 
L 321.166791 78.466089 
L 321.392106 78.354757 
L 321.392106 78.245205 
L 321.615894 78.133874 
L 321.615894 78.025593 
L 321.838174 77.914261 
L 321.838174 77.807759 
L 322.058968 77.696428 
L 322.058968 77.603906 
L 322.278294 77.492574 
L 322.278294 77.406407 
L 322.496173 77.295075 
L 322.496173 77.18654 
L 322.712623 77.075208 
L 322.712623 76.984211 
L 322.927663 76.87288 
L 322.927663 76.783662 
L 323.141311 76.672331 
L 323.141311 76.578538 
L 323.353585 76.467207 
L 323.353585 76.368838 
L 323.564503 76.257507 
L 323.564503 76.161935 
L 323.774081 76.050603 
L 323.774081 75.963165 
L 323.982338 75.851833 
L 323.982338 75.774816 
L 324.189288 75.663485 
L 324.189288 75.574776 
L 324.394949 75.463444 
L 324.394949 75.367364 
L 324.599337 75.256032 
L 324.599337 75.164019 
L 324.802467 75.052687 
L 324.802467 74.967282 
L 325.004355 74.855951 
L 325.004355 74.785797 
L 325.205015 74.674465 
L 325.205015 74.596177 
L 325.404463 74.484846 
L 325.404463 74.406304 
L 325.602713 74.294972 
L 325.602713 74.209059 
L 325.799779 74.097728 
L 325.799779 74.011306 
L 325.995676 73.899975 
L 325.995676 73.826008 
L 326.190417 73.714676 
L 326.190417 73.627746 
L 326.384016 73.516415 
L 326.384016 73.438381 
L 326.576486 73.32705 
L 326.576486 73.254608 
L 326.76784 73.143277 
L 326.76784 73.081511 
L 326.958091 72.970179 
L 326.958091 72.8924 
L 327.147252 72.781068 
L 327.147252 72.703289 
L 327.335335 72.591957 
L 327.335335 72.520532 
L 327.522353 72.409201 
L 327.522353 72.327863 
L 327.708317 72.216531 
L 327.708317 72.137989 
L 327.893239 72.026658 
L 327.893239 71.958537 
L 328.077131 71.847206 
L 328.077131 71.764851 
L 328.260004 71.65352 
L 328.260004 71.579553 
L 328.44187 71.468221 
L 328.44187 71.40493 
L 328.622739 71.293599 
L 328.622739 71.228528 
L 328.802622 71.117197 
L 328.802622 71.057718 
L 328.98153 70.946387 
L 328.98153 70.874199 
L 329.159474 70.762868 
L 329.159474 70.694747 
L 329.336464 70.583416 
L 329.336464 70.516566 
L 329.51251 70.405235 
L 329.51251 70.341689 
L 329.687622 70.230358 
L 329.687622 70.167321 
L 329.86181 70.05599 
L 329.86181 69.988123 
L 330.035083 69.876792 
L 330.035083 69.809688 
L 330.207452 69.698356 
L 330.207452 69.636336 
L 330.378925 69.525005 
L 330.378925 69.457392 
L 330.549512 69.346061 
L 330.549512 69.287091 
L 330.719222 69.175759 
L 330.719222 69.129498 
L 330.888064 69.018167 
L 330.888064 68.963518 
L 331.056046 68.852187 
L 331.056046 68.790166 
L 331.223178 68.678835 
L 331.223178 68.624948 
L 331.389468 68.513617 
L 331.389468 68.454393 
L 331.554925 68.343061 
L 331.554925 68.282312 
L 331.719556 68.17098 
L 331.719556 68.119382 
L 331.88337 68.00805 
L 331.88337 67.954418 
L 332.046376 67.843086 
L 332.046376 67.788183 
L 332.20858 67.676852 
L 332.20858 67.627032 
L 332.369991 67.515701 
L 332.369991 67.460035 
L 332.530617 67.348704 
L 332.530617 67.296596 
L 332.690465 67.185265 
L 332.690465 67.125532 
L 332.849542 67.014201 
L 332.849542 66.959552 
L 333.007857 66.84822 
L 333.007857 66.806026 
L 333.165416 66.694695 
L 333.165416 66.634708 
L 333.322226 66.523377 
L 333.322226 66.464915 
L 333.478295 66.353584 
L 333.478295 66.301985 
L 333.633629 66.190653 
L 333.633629 66.139309 
L 333.788236 66.027977 
L 333.788236 65.974091 
L 333.942122 65.862759 
L 333.942122 65.813194 
L 334.095294 65.701862 
L 334.095294 65.660177 
L 334.247759 65.548845 
L 334.247759 65.508685 
L 334.399522 65.397353 
L 334.399522 65.362022 
L 334.550591 65.250691 
L 334.550591 65.211547 
L 334.700972 65.100215 
L 334.700972 65.066663 
L 334.850671 64.955332 
L 334.850671 64.919492 
L 334.999694 64.808161 
L 334.999694 64.767746 
L 335.148047 64.656414 
L 335.148047 64.608628 
L 335.295736 64.497297 
L 335.295736 64.462474 
L 335.442768 64.351143 
L 335.442768 64.31632 
L 335.589147 64.204988 
L 335.589147 64.163811 
L 335.73488 64.052479 
L 335.73488 64.012827 
L 335.879973 63.901496 
L 335.879973 63.862606 
L 336.02443 63.751275 
L 336.02443 63.714672 
L 336.168259 63.603341 
L 336.168259 63.590124 
L 336.311463 63.478792 
L 336.311463 63.43914 
L 336.454048 63.327808 
L 336.454048 63.283327 
L 336.596021 63.171995 
L 336.596021 63.146577 
L 336.737385 63.035246 
L 336.737385 63.006269 
L 336.878146 62.894937 
L 336.878146 62.863419 
L 337.01831 62.752088 
L 337.01831 62.720569 
L 337.157881 62.609238 
L 337.157881 62.586361 
L 337.296865 62.47503 
L 337.296865 62.453679 
L 337.435265 62.342347 
L 337.435265 62.311337 
L 337.573088 62.200006 
L 337.573088 62.172554 
L 337.710338 62.061223 
L 337.710338 62.025383 
L 337.847019 61.914052 
L 337.847019 61.884312 
L 337.983137 61.772981 
L 337.983137 61.736887 
L 338.118696 61.625556 
L 338.118696 61.600646 
L 338.2537 61.489314 
L 338.2537 61.465421 
L 338.388155 61.35409 
L 338.388155 61.329434 
L 338.522064 61.218103 
L 338.522064 61.202089 
L 338.655431 61.090758 
L 338.655431 61.056189 
L 338.788263 60.944858 
L 338.788263 60.926303 
L 338.920561 60.814971 
L 338.920561 60.788028 
L 339.052332 60.676697 
L 339.052332 60.647974 
L 339.183579 60.536643 
L 339.183579 60.508174 
L 339.314306 60.396843 
L 339.314306 60.379304 
L 339.444517 60.267973 
L 339.444517 60.247893 
L 339.574217 60.136561 
L 339.574217 60.114956 
L 339.703409 60.003624 
L 339.703409 59.975664 
L 339.832097 59.864333 
L 339.832097 59.843236 
L 339.960286 59.731904 
L 339.960286 59.714874 
L 340.087978 59.603543 
L 340.087978 59.571516 
L 340.215179 59.460184 
L 340.215179 59.441121 
L 340.341891 59.329789 
L 340.341891 59.31098 
L 340.468119 59.199649 
L 340.468119 59.173976 
L 340.593866 59.062645 
L 340.593866 59.043073 
L 340.719135 58.931741 
L 340.719135 58.905561 
L 340.843931 58.794229 
L 340.843931 58.771607 
L 340.968257 58.660276 
L 340.968257 58.642483 
L 341.092117 58.531152 
L 341.092117 58.516917 
L 341.215513 58.405586 
L 341.215513 58.383218 
L 341.33845 58.271886 
L 341.33845 58.258669 
L 341.460931 58.147338 
L 341.460931 58.131578 
L 341.582959 58.020247 
L 341.582959 58.0083 
L 341.704537 57.896969 
L 341.704537 57.884514 
L 341.82567 57.773183 
L 341.82567 57.751831 
L 341.946359 57.6405 
L 341.946359 57.631095 
L 342.066609 57.519764 
L 342.066609 57.509342 
L 342.186422 57.398011 
L 342.186422 57.384285 
L 342.305802 57.272954 
L 342.305802 57.256178 
L 342.424752 57.144846 
L 342.424752 57.140525 
L 342.543274 57.029194 
L 342.543274 57.020806 
L 342.661373 56.909474 
L 342.661373 56.90312 
L 342.77905 56.791788 
L 342.77905 56.786959 
L 342.89631 56.675627 
L 342.89631 56.652497 
L 343.013154 56.541165 
L 343.013154 56.524389 
L 343.129586 56.413058 
L 343.129586 56.398824 
L 343.245609 56.287492 
L 343.245609 56.280121 
L 343.361226 56.16879 
L 343.361226 56.159639 
L 343.476439 56.048308 
L 343.476439 56.030261 
L 343.591251 55.918929 
L 343.591251 55.902662 
L 343.705666 55.79133 
L 343.705666 55.780655 
L 343.819685 55.669323 
L 343.819685 55.65941 
L 344.046549 55.547825 
L 344.046549 55.428105 
L 344.159398 55.316774 
L 344.159398 55.304319 
L 344.383947 55.192733 
L 344.383947 55.079114 
L 344.495651 54.967783 
L 344.495651 54.964733 
L 344.606978 54.853401 
L 344.717931 54.713856 
L 344.828513 54.602524 
L 344.938725 54.480263 
L 345.158051 54.368677 
L 345.26717 54.19075 
L 345.484332 54.079165 
L 345.59238 53.917251 
L 345.80742 53.805665 
L 345.914417 53.656461 
L 346.127376 53.544875 
L 346.233342 53.410668 
L 346.44426 53.299082 
L 346.549216 53.160553 
L 346.758131 53.048967 
L 346.862095 52.934332 
L 347.069045 52.822746 
L 347.172036 52.717769 
L 347.377059 52.606183 
L 347.479094 52.501715 
L 347.682224 52.390129 
L 347.783322 52.287948 
L 347.984594 52.176363 
L 348.084772 52.068082 
L 348.28422 51.956496 
L 348.383494 51.865499 
L 348.58115 51.753913 
L 348.679536 51.669271 
L 348.875433 51.557685 
L 348.972947 51.466943 
L 349.167115 51.355357 
L 349.263773 51.273002 
L 349.456243 51.161417 
L 349.552059 51.07957 
L 349.74286 50.967984 
L 349.837848 50.904693 
L 350.027009 50.793108 
L 350.121185 50.721683 
L 350.308734 50.610097 
L 350.40211 50.549348 
L 350.588074 50.437762 
L 350.680665 50.373708 
L 350.86507 50.262123 
L 350.956888 50.201628 
L 351.230819 50.089788 
L 351.321627 49.976931 
L 351.502496 49.865346 
L 351.59256 49.808409 
L 351.861287 49.696569 
L 351.950379 49.596422 
L 352.216221 49.484582 
L 352.304361 49.381638 
L 352.567379 49.269799 
L 352.654588 49.179818 
L 352.91484 49.067979 
L 353.001137 48.974948 
L 353.258682 48.863108 
L 353.344086 48.772874 
L 353.598979 48.661034 
L 353.683508 48.584271 
L 353.935803 48.472432 
L 354.019475 48.409395 
L 354.269225 48.297555 
L 354.352057 48.224859 
L 354.599313 48.113019 
L 354.681322 48.057099 
L 354.926133 47.945259 
L 355.007335 47.880952 
L 355.249748 47.769112 
L 355.330159 47.723105 
L 355.570222 47.611265 
L 355.649856 47.559921 
L 355.887614 47.448081 
L 355.966487 47.399278 
L 356.201983 47.287438 
L 356.28011 47.250328 
L 356.513386 47.138488 
L 356.59078 47.097056 
L 356.898554 46.984962 
L 356.975051 46.918875 
L 357.203485 46.807035 
L 357.279279 46.768908 
L 357.580729 46.656814 
L 357.655663 46.599369 
L 357.879451 46.487529 
L 357.953711 46.458298 
L 358.249091 46.346204 
L 358.322525 46.279609 
L 358.614637 46.167515 
L 358.687263 46.115916 
L 358.97618 46.003822 
L 359.048016 45.943073 
L 359.333805 45.830979 
L 359.404868 45.78243 
L 359.687598 45.670336 
L 359.757904 45.635767 
L 360.037638 45.523673 
L 360.107203 45.491647 
L 360.384006 45.379553 
L 360.452845 45.352101 
L 360.726776 45.240007 
L 360.794905 45.211285 
L 361.133457 45.098936 
L 361.200753 45.054455 
L 361.535189 44.942106 
L 361.601671 44.902963 
L 361.932089 44.790614 
L 361.997778 44.753758 
L 362.324274 44.64141 
L 362.389188 44.601758 
L 362.711854 44.489409 
L 362.776011 44.448995 
L 363.094936 44.336646 
L 363.158353 44.30589 
L 363.536317 44.193288 
L 363.598892 44.152111 
L 363.910002 44.039763 
L 363.971874 44.004431 
L 364.340688 43.891829 
L 364.401758 43.865394 
L 364.765827 43.752792 
L 364.826116 43.724832 
L 365.185559 43.612229 
L 365.245087 43.574865 
L 365.600021 43.462262 
L 365.658807 43.433794 
L 366.009344 43.321192 
L 366.067406 43.284844 
L 366.471009 43.171987 
L 366.528265 43.139198 
L 366.926306 43.026341 
L 366.982779 43.003719 
L 367.375408 42.890863 
L 367.431119 42.862649 
L 367.87345 42.749538 
L 367.983113 42.714715 
L 368.36409 42.601858 
L 368.472137 42.568815 
L 368.900825 42.455704 
L 369.007133 42.415544 
L 369.481326 42.302179 
L 369.585783 42.264814 
L 370.051793 42.151449 
L 370.154464 42.114339 
L 370.663079 42.00072 
L 370.763869 41.968184 
L 371.263251 41.854565 
L 371.362227 41.821522 
L 371.901353 41.707648 
L 371.998437 41.675876 
L 372.622617 41.561494 
L 372.717605 41.532517 
L 373.328457 41.418136 
L 373.421438 41.393734 
L 374.019518 41.279353 
L 374.110576 41.25851 
L 374.696408 41.144128 
L 374.785621 41.127606 
L 375.403445 41.012971 
L 375.490769 40.996195 
L 376.138439 40.881305 
L 376.223843 40.865545 
L 376.982692 40.750147 
L 377.065942 40.731338 
L 377.765214 40.616194 
L 377.846516 40.600434 
L 378.569359 40.485036 
L 378.648706 40.473852 
L 379.470537 40.357691 
L 379.54775 40.342949 
L 380.385382 40.226533 
L 380.460486 40.214333 
L 381.494394 40.096393 
L 381.603274 40.081142 
L 382.602526 39.963202 
L 382.707817 39.948459 
L 383.776593 39.829756 
L 383.87821 39.818827 
L 385.008521 39.699361 
L 385.106421 39.689702 
L 386.447377 39.568204 
L 386.541107 39.559816 
L 388.00568 39.436792 
L 388.065316 39.432979 
L 389.579199 39.315547 
L 389.664456 39.311735 
L 391.780582 39.181848 
L 391.88689 39.175239 
L 394.389894 39.040269 
L 394.488134 39.033914 
L 398.261335 38.883693 
L 398.370526 38.881151 
L 436.443997 38.545886 
L 472.124545 38.540803 
L 472.124545 38.540803 
" clip-path="url(#pc3d61b3bf0)" style="fill: none; stroke: #0072b2; stroke-width: 1.2; stroke-linecap: round"/>
   </g>
   <g id="patch_3">
    <path d="M 52.22 275.857656 
L 52.22 27.24 
" style="fill: none; stroke: #cccccc; stroke-width: 1.25; stroke-linejoin: miter; stroke-linecap: square"/>
   </g>
   <g id="patch_4">
    <path d="M 492.12 275.857656 
L 492.12 27.24 
" style="fill: none; stroke: #cccccc; stroke-width: 1.25; stroke-linejoin: miter; stroke-linecap: square"/>
   </g>
   <g id="patch_5">
    <path d="M 52.22 275.857656 
L 492.12 275.857656 
" style="fill: none; stroke: #cccccc; stroke-width: 1.25; stroke-linejoin: miter; stroke-linecap: square"/>
   </g>
   <g id="patch_6">
    <path d="M 52.22 27.24 
L 492.12 27.24 
" style="fill: none; stroke: #cccccc; stroke-width: 1.25; stroke-linejoin: miter; stroke-linecap: square"/>
   </g>
   <g id="text_15">
    <!-- First-post offset ECDF — Weibull $\times$ Power-law users -->
    <g style="fill: #262626" transform="translate(118.63 21.24) scale(0.12 -0.12)">
     <defs>
      <path id="DejaVuSans-4c" d="M 603 3500 
L 1178 3500 
L 1178 0 
L 603 0 
L 603 3500 
z
M 603 4863 
L 1178 4863 
L 1178 4134 
L 603 4134 
L 603 4863 
z
" transform="scale(0.015625)"/>
      <path id="DejaVuSans-49" d="M 2375 4863 
L 2375 4384 
L 1825 4384 
Q 1516 4384 1395 4259 
Q 1275 4134 1275 3809 
L 1275 3500 
L 2222 3500 
L 2222 3053 
L 1275 3053 
L 1275 0 
L 697 0 
L 697 3053 
L 147 3053 
L 147 3500 
L 697 3500 
L 697 3744 
Q 697 4328 969 4595 
Q 1241 4863 1831 4863 
L 2375 4863 
z
" transform="scale(0.015625)"/>
      <path id="DejaVuSansDisplay-4" d="M 313 1978 
L 6088 1978 
L 6088 1528 
L 313 1528 
L 313 1978 
z
" transform="scale(0.015625)"/>
      <path id="DejaVuSans-3a" d="M 213 4666 
L 850 4666 
L 1831 722 
L 2809 4666 
L 3519 4666 
L 4500 722 
L 5478 4666 
L 6119 4666 
L 4947 0 
L 4153 0 
L 3169 4050 
L 2175 0 
L 1381 0 
L 213 4666 
z
" transform="scale(0.015625)"/>
      <path id="DejaVuSans-45" d="M 3116 1747 
Q 3116 2381 2855 2742 
Q 2594 3103 2138 3103 
Q 1681 3103 1420 2742 
Q 1159 2381 1159 1747 
Q 1159 1113 1420 752 
Q 1681 391 2138 391 
Q 2594 391 2855 752 
Q 3116 1113 3116 1747 
z
M 1159 2969 
Q 1341 3281 1617 3432 
Q 1894 3584 2278 3584 
Q 2916 3584 3314 3078 
Q 3713 2572 3713 1747 
Q 3713 922 3314 415 
Q 2916 -91 2278 -91 
Q 1894 -91 1617 61 
Q 1341 213 1159 525 
L 1159 0 
L 581 0 
L 581 4863 
L 1159 4863 
L 1159 2969 
z
" transform="scale(0.015625)"/>
      <path id="DejaVuSans-58" d="M 544 1381 
L 544 3500 
L 1119 3500 
L 1119 1403 
Q 1119 906 1312 657 
Q 1506 409 1894 409 
Q 2359 409 2629 706 
Q 2900 1003 2900 1516 
L 2900 3500 
L 3475 3500 
L 3475 0 
L 2900 0 
L 2900 538 
Q 2691 219 2414 64 
Q 2138 -91 1772 -91 
Q 1169 -91 856 284 
Q 544 659 544 1381 
z
M 1991 3584 
L 1991 3584 
z
" transform="scale(0.015625)"/>
      <path id="DejaVuSans-4f" d="M 603 4863 
L 1178 4863 
L 1178 0 
L 603 0 
L 603 4863 
z
" transform="scale(0.015625)"/>
      <path id="DejaVuSans-99" d="M 4488 3438 
L 3059 2003 
L 4488 575 
L 4116 197 
L 2681 1631 
L 1247 197 
L 878 575 
L 2303 2003 
L 878 3438 
L 1247 3816 
L 2681 2381 
L 4116 3816 
L 4488 3438 
z
" transform="scale(0.015625)"/>
      <path id="DejaVuSans-33" d="M 1259 4147 
L 1259 2394 
L 2053 2394 
Q 2494 2394 2734 2622 
Q 2975 2850 2975 3272 
Q 2975 3691 2734 3919 
Q 2494 4147 2053 4147 
L 1259 4147 
z
M 628 4666 
L 2053 4666 
Q 2838 4666 3239 4311 
Q 3641 3956 3641 3272 
Q 3641 2581 3239 2228 
Q 2838 1875 2053 1875 
L 1259 1875 
L 1259 0 
L 628 0 
L 628 4666 
z
" transform="scale(0.015625)"/>
      <path id="DejaVuSans-5a" d="M 269 3500 
L 844 3500 
L 1563 769 
L 2278 3500 
L 2956 3500 
L 3675 769 
L 4391 3500 
L 4966 3500 
L 4050 0 
L 3372 0 
L 2619 2869 
L 1863 0 
L 1184 0 
L 269 3500 
z
" transform="scale(0.015625)"/>
      <path id="DejaVuSans-44" d="M 2194 1759 
Q 1497 1759 1228 1600 
Q 959 1441 959 1056 
Q 959 750 1161 570 
Q 1363 391 1709 391 
Q 2188 391 2477 730 
Q 2766 1069 2766 1631 
L 2766 1759 
L 2194 1759 
z
M 3341 1997 
L 3341 0 
L 2766 0 
L 2766 531 
Q 2569 213 2275 61 
Q 1981 -91 1556 -91 
Q 1019 -91 701 211 
Q 384 513 384 1019 
Q 384 1609 779 1909 
Q 1175 2209 1959 2209 
L 2766 2209 
L 2766 2266 
Q 2766 2663 2505 2880 
Q 2244 3097 1772 3097 
Q 1472 3097 1187 3025 
Q 903 2953 641 2809 
L 641 3341 
Q 956 3463 1253 3523 
Q 1550 3584 1831 3584 
Q 2591 3584 2966 3190 
Q 3341 2797 3341 1997 
z
" transform="scale(0.015625)"/>
     </defs>
     <use xlink:href="#DejaVuSans-29" transform="translate(0 0.015625)"/>
     <use xlink:href="#DejaVuSans-4c" transform="translate(50.519531 0.015625)"/>
     <use xlink:href="#DejaVuSans-55" transform="translate(78.302734 0.015625)"/>
     <use xlink:href="#DejaVuSans-56" transform="translate(119.416016 0.015625)"/>
     <use xlink:href="#DejaVuSans-57" transform="translate(171.515625 0.015625)"/>
     <use xlink:href="#DejaVuSans-10" transform="translate(210.724609 0.015625)"/>
     <use xlink:href="#DejaVuSans-53" transform="translate(246.808594 0.015625)"/>
     <use xlink:href="#DejaVuSans-52" transform="translate(310.285156 0.015625)"/>
     <use xlink:href="#DejaVuSans-56" transform="translate(371.466797 0.015625)"/>
     <use xlink:href="#DejaVuSans-57" transform="translate(423.566406 0.015625)"/>
     <use xlink:href="#DejaVuSans-3" transform="translate(462.775391 0.015625)"/>
     <use xlink:href="#DejaVuSans-52" transform="translate(494.5625 0.015625)"/>
     <use xlink:href="#DejaVuSans-49" transform="translate(555.744141 0.015625)"/>
     <use xlink:href="#DejaVuSans-49" transform="translate(590.949219 0.015625)"/>
     <use xlink:href="#DejaVuSans-56" transform="translate(626.154297 0.015625)"/>
     <use xlink:href="#DejaVuSans-48" transform="translate(678.253906 0.015625)"/>
     <use xlink:href="#DejaVuSans-57" transform="translate(739.777344 0.015625)"/>
     <use xlink:href="#DejaVuSans-3" transform="translate(778.986328 0.015625)"/>
     <use xlink:href="#DejaVuSans-28" transform="translate(810.773438 0.015625)"/>
     <use xlink:href="#DejaVuSans-26" transform="translate(873.957031 0.015625)"/>
     <use xlink:href="#DejaVuSans-27" transform="translate(943.78125 0.015625)"/>
     <use xlink:href="#DejaVuSans-29" transform="translate(1020.783203 0.015625)"/>
     <use xlink:href="#DejaVuSans-3" transform="translate(1078.302734 0.015625)"/>
     <use xlink:href="#DejaVuSansDisplay-4" transform="translate(1110.089844 0.015625)"/>
     <use xlink:href="#DejaVuSans-3" transform="translate(1210.089844 0.015625)"/>
     <use xlink:href="#DejaVuSans-3a" transform="translate(1241.876953 0.015625)"/>
     <use xlink:href="#DejaVuSans-48" transform="translate(1334.753906 0.015625)"/>
     <use xlink:href="#DejaVuSans-4c" transform="translate(1396.277344 0.015625)"/>
     <use xlink:href="#DejaVuSans-45" transform="translate(1424.060547 0.015625)"/>
     <use xlink:href="#DejaVuSans-58" transform="translate(1487.537109 0.015625)"/>
     <use xlink:href="#DejaVuSans-4f" transform="translate(1550.916016 0.015625)"/>
     <use xlink:href="#DejaVuSans-4f" transform="translate(1578.699219 0.015625)"/>
     <use xlink:href="#DejaVuSans-3" transform="translate(1606.482422 0.015625)"/>
     <use xlink:href="#DejaVuSans-99" transform="translate(1638.269531 0.015625)"/>
     <use xlink:href="#DejaVuSans-3" transform="translate(1722.058594 0.015625)"/>
     <use xlink:href="#DejaVuSans-33" transform="translate(1753.845703 0.015625)"/>
     <use xlink:href="#DejaVuSans-52" transform="translate(1810.148438 0.015625)"/>
     <use xlink:href="#DejaVuSans-5a" transform="translate(1871.330078 0.015625)"/>
     <use xlink:href="#DejaVuSans-48" transform="translate(1953.117188 0.015625)"/>
     <use xlink:href="#DejaVuSans-55" transform="translate(2014.640625 0.015625)"/>
     <use xlink:href="#DejaVuSans-10" transform="translate(2049.753906 0.015625)"/>
     <use xlink:href="#DejaVuSans-4f" transform="translate(2085.837891 0.015625)"/>
     <use xlink:href="#DejaVuSans-44" transform="translate(2113.621094 0.015625)"/>
     <use xlink:href="#DejaVuSans-5a" transform="translate(2174.900391 0.015625)"/>
     <use xlink:href="#DejaVuSans-3" transform="translate(2256.6875 0.015625)"/>
     <use xlink:href="#DejaVuSans-58" transform="translate(2288.474609 0.015625)"/>
     <use xlink:href="#DejaVuSans-56" transform="translate(2351.853516 0.015625)"/>
     <use xlink:href="#DejaVuSans-48" transform="translate(2403.953125 0.015625)"/>
     <use xlink:href="#DejaVuSans-55" transform="translate(2465.476562 0.015625)"/>
     <use xlink:href="#DejaVuSans-56" transform="translate(2506.589844 0.015625)"/>
    </g>
   </g>
  </g>
 </g>
 <defs>
  <clipPath id="pc3d61b3bf0">
   <rect x="52.22" y="27.24" width="439.9" height="248.617656"/>
  </clipPath>
 </defs>
</svg>
