<?xml version="1.0" encoding="utf-8" standalone="no"?>
<!DOCTYPE svg PUBLIC "-//W3C//DTD SVG 1.1//EN"
  "http://www.w3.org/Graphics/SVG/1.1/DTD/svg11.dtd">
<svg xmlns:xlink="http://www.w3.org/1999/xlink" width="427.05pt" height="285.780703pt" viewBox="0 0 427.05 285.780703" xmlns="http://www.w3.org/2000/svg" version="1.1">
 <metadata>
  <rdf:RDF xmlns:dc="http://purl.org/dc/elements/1.1/" xmlns:cc="http://creativecommons.org/ns#" xmlns:rdf="http://www.w3.org/1999/02/22-rdf-syntax-ns#">
   <cc:Work>
    <dc:type rdf:resource="http://purl.org/dc/dcmitype/StillImage"/>
    <dc:date>2026-09-10T14:06:49.919415</dc:date>
    <dc:format>image/svg+xml</dc:format>
    <dc:creator>
     <cc:Agent>
      <dc:title>Matplotlib v3.11.1, https://matplotlib.org/</dc:title>
     </cc:Agent>
    </dc:creator>
   </cc:Work>
  </rdf:RDF>
 </metadata>
 <defs>
  <style type="text/css">*{stroke-linejoin: round; stroke-linecap: butt}</style>
 </defs>
 <g id="figure_1">
  <g id="patch_1">
   <path d="M 0 285.780703 
L 427.05 285.780703 
L 427.05 0 
L 0 0 
z
" style="fill: #ffffff"/>
  </g>
  <g id="axes_1">
   <g id="patch_2">
    <path d="M 57.15 244.078125 
L 419.85 244.078125 
L 419.85 22.318125 
L 57.15 22.318125 
z
" style="fill: #ffffff"/>
   </g>
   <g id="matplotlib.axis_1">
    <g id="xtick_1">
     <g id="line2d_1">
      <path d="M 117.461278 244.078125 
L 117.461278 22.318125 
" clip-path="url(#pd985de3d35)" style="fill: none; stroke: #cccccc; stroke-linecap: round"/>
     </g>
     <g id="text_1">
      <!-- 0.0 -->
      <g style="fill: #262626" transform="translate(109.509715 261.175781) scale(0.1 -0.1)">
       <defs>
        <path id="DejaVuSans-13" d="M 2034 4250 
Q 1547 4250 1301 3770 
Q 1056 3291 1056 2328 
Q 1056 1369 1301 889 
Q 1547 409 2034 409 
Q 2525 409 2770 889 
Q 3016 1369 3016 2328 
Q 3016 3291 2770 3770 
Q 2525 4250 2034 4250 
z
M 2034 4750 
Q 2819 4750 3233 4129 
Q 3647 3509 3647 2328 
Q 3647 1150 3233 529 
Q 2819 -91 2034 -91 
Q 1250 -91 836 529 
Q 422 1150 422 2328 
Q 422 3509 836 4129 
Q 1250 4750 2034 4750 
z
" transform="scale(0.015625)"/>
        <path id="DejaVuSans-11" d="M 684 794 
L 1344 794 
L 1344 0 
L 684 0 
L 684 794 
z
" transform="scale(0.015625)"/>
       </defs>
       <use xlink:href="#DejaVuSans-13"/>
       <use xlink:href="#DejaVuSans-11" transform="translate(63.625 0)"/>
       <use xlink:href="#DejaVuSans-13" transform="translate(95.40625 0)"/>
      </g>
     </g>
    </g>
    <g id="xtick_2">
     <g id="line2d_2">
      <path d="M 180.299372 244.078125 
L 180.299372 22.318125 
" clip-path="url(#pd985de3d35)" style="fill: none; stroke: #cccccc; stroke-linecap: round"/>
     </g>
     <g id="text_2">
      <!-- 0.5 -->
      <g style="fill: #262626" transform="translate(172.34781 261.175781) scale(0.1 -0.1)">
       <defs>
        <path id="DejaVuSans-18" d="M 691 4666 
L 3169 4666 
L 3169 4134 
L 1269 4134 
L 1269 2991 
Q 1406 3038 1543 3061 
Q 1681 3084 1819 3084 
Q 2600 3084 3056 2656 
Q 3513 2228 3513 1497 
Q 3513 744 3044 326 
Q 2575 -91 1722 -91 
Q 1428 -91 1123 -41 
Q 819 9 494 109 
L 494 744 
Q 775 591 1075 516 
Q 1375 441 1709 441 
Q 2250 441 2565 725 
Q 2881 1009 2881 1497 
Q 2881 1984 2565 2268 
Q 2250 2553 1709 2553 
Q 1456 2553 1204 2497 
Q 953 2441 691 2322 
L 691 4666 
z
" transform="scale(0.015625)"/>
       </defs>
       <use xlink:href="#DejaVuSans-13"/>
       <use xlink:href="#DejaVuSans-11" transform="translate(63.625 0)"/>
       <use xlink:href="#DejaVuSans-18" transform="translate(95.40625 0)"/>
      </g>
     </g>
    </g>
    <g id="xtick_3">
     <g id="line2d_3">
      <path d="M 243.137466 244.078125 
L 243.137466 22.318125 
" clip-path="url(#pd985de3d35)" style="fill: none; stroke: #cccccc; stroke-linecap: round"/>
     </g>
     <g id="text_3">
      <!-- 1.0 -->
      <g style="fill: #262626" transform="translate(235.185904 261.175781) scale(0.1 -0.1)">
       <defs>
        <path id="DejaVuSans-14" d="M 794 531 
L 1825 531 
L 1825 4091 
L 703 3866 
L 703 4441 
L 1819 4666 
L 2450 4666 
L 2450 531 
L 3481 531 
L 3481 0 
L 794 0 
L 794 531 
z
" transform="scale(0.015625)"/>
       </defs>
       <use xlink:href="#DejaVuSans-14"/>
       <use xlink:href="#DejaVuSans-11" transform="translate(63.625 0)"/>
       <use xlink:href="#DejaVuSans-13" transform="translate(95.40625 0)"/>
      </g>
     </g>
    </g>
    <g id="xtick_4">
     <g id="line2d_4">
      <path d="M 305.975561 244.078125 
L 305.975561 22.318125 
" clip-path="url(#pd985de3d35)" style="fill: none; stroke: #cccccc; stroke-linecap: round"/>
     </g>
     <g id="text_4">
      <!-- 1.5 -->
      <g style="fill: #262626" transform="translate(298.023998 261.175781) scale(0.1 -0.1)">
       <use xlink:href="#DejaVuSans-14"/>
       <use xlink:href="#DejaVuSans-11" transform="translate(63.625 0)"/>
       <use xlink:href="#DejaVuSans-18" transform="translate(95.40625 0)"/>
      </g>
     </g>
    </g>
    <g id="xtick_5">
     <g id="line2d_5">
      <path d="M 368.813655 244.078125 
L 368.813655 22.318125 
" clip-path="url(#pd985de3d35)" style="fill: none; stroke: #cccccc; stroke-linecap: round"/>
     </g>
     <g id="text_5">
      <!-- 2.0 -->
      <g style="fill: #262626" transform="translate(360.862092 261.175781) scale(0.1 -0.1)">
       <defs>
        <path id="DejaVuSans-15" d="M 1228 531 
L 3431 531 
L 3431 0 
L 469 0 
L 469 531 
Q 828 903 1448 1529 
Q 2069 2156 2228 2338 
Q 2531 2678 2651 2914 
Q 2772 3150 2772 3378 
Q 2772 3750 2511 3984 
Q 2250 4219 1831 4219 
Q 1534 4219 1204 4116 
Q 875 4013 500 3803 
L 500 4441 
Q 881 4594 1212 4672 
Q 1544 4750 1819 4750 
Q 2544 4750 2975 4387 
Q 3406 4025 3406 3419 
Q 3406 3131 3298 2873 
Q 3191 2616 2906 2266 
Q 2828 2175 2409 1742 
Q 1991 1309 1228 531 
z
" transform="scale(0.015625)"/>
       </defs>
       <use xlink:href="#DejaVuSans-15"/>
       <use xlink:href="#DejaVuSans-11" transform="translate(63.625 0)"/>
       <use xlink:href="#DejaVuSans-13" transform="translate(95.40625 0)"/>
      </g>
     </g>
    </g>
    <g id="text_6">
     <!-- GPD shape parameter $\xi$ — inter-session gaps -->
     <g style="fill: #262626" transform="translate(113.925 275.938125) scale(0.11 -0.11)">
      <defs>
       <path id="DejaVuSans-2a" d="M 3809 666 
L 3809 1919 
L 2778 1919 
L 2778 2438 
L 4434 2438 
L 4434 434 
Q 4069 175 3628 42 
Q 3188 -91 2688 -91 
Q 1594 -91 976 548 
Q 359 1188 359 2328 
Q 359 3472 976 4111 
Q 1594 4750 2688 4750 
Q 3144 4750 3555 4637 
Q 3966 4525 4313 4306 
L 4313 3634 
Q 3963 3931 3569 4081 
Q 3175 4231 2741 4231 
Q 1884 4231 1454 3753 
Q 1025 3275 1025 2328 
Q 1025 1384 1454 906 
Q 1884 428 2741 428 
Q 3075 428 3337 486 
Q 3600 544 3809 666 
z
" transform="scale(0.015625)"/>
       <path id="DejaVuSans-33" d="M 1259 4147 
L 1259 2394 
L 2053 2394 
Q 2494 2394 2734 2622 
Q 2975 2850 2975 3272 
Q 2975 3691 2734 3919 
Q 2494 4147 2053 4147 
L 1259 4147 
z
M 628 4666 
L 2053 4666 
Q 2838 4666 3239 4311 
Q 3641 3956 3641 3272 
Q 3641 2581 3239 2228 
Q 2838 1875 2053 1875 
L 1259 1875 
L 1259 0 
L 628 0 
L 628 4666 
z
" transform="scale(0.015625)"/>
       <path id="DejaVuSans-27" d="M 1259 4147 
L 1259 519 
L 2022 519 
Q 2988 519 3436 956 
Q 3884 1394 3884 2338 
Q 3884 3275 3436 3711 
Q 2988 4147 2022 4147 
L 1259 4147 
z
M 628 4666 
L 1925 4666 
Q 3281 4666 3915 4102 
Q 4550 3538 4550 2338 
Q 4550 1131 3912 565 
Q 3275 0 1925 0 
L 628 0 
L 628 4666 
z
" transform="scale(0.015625)"/>
       <path id="DejaVuSans-3" transform="scale(0.015625)"/>
       <path id="DejaVuSans-56" d="M 2834 3397 
L 2834 2853 
Q 2591 2978 2328 3040 
Q 2066 3103 1784 3103 
Q 1356 3103 1142 2972 
Q 928 2841 928 2578 
Q 928 2378 1081 2264 
Q 1234 2150 1697 2047 
L 1894 2003 
Q 2506 1872 2764 1633 
Q 3022 1394 3022 966 
Q 3022 478 2636 193 
Q 2250 -91 1575 -91 
Q 1294 -91 989 -36 
Q 684 19 347 128 
L 347 722 
Q 666 556 975 473 
Q 1284 391 1588 391 
Q 1994 391 2212 530 
Q 2431 669 2431 922 
Q 2431 1156 2273 1281 
Q 2116 1406 1581 1522 
L 1381 1569 
Q 847 1681 609 1914 
Q 372 2147 372 2553 
Q 372 3047 722 3315 
Q 1072 3584 1716 3584 
Q 2034 3584 2315 3537 
Q 2597 3491 2834 3397 
z
" transform="scale(0.015625)"/>
       <path id="DejaVuSans-4b" d="M 3513 2113 
L 3513 0 
L 2938 0 
L 2938 2094 
Q 2938 2591 2744 2837 
Q 2550 3084 2163 3084 
Q 1697 3084 1428 2787 
Q 1159 2491 1159 1978 
L 1159 0 
L 581 0 
L 581 4863 
L 1159 4863 
L 1159 2956 
Q 1366 3272 1645 3428 
Q 1925 3584 2291 3584 
Q 2894 3584 3203 3211 
Q 3513 2838 3513 2113 
z
" transform="scale(0.015625)"/>
       <path id="DejaVuSans-44" d="M 2194 1759 
Q 1497 1759 1228 1600 
Q 959 1441 959 1056 
Q 959 750 1161 570 
Q 1363 391 1709 391 
Q 2188 391 2477 730 
Q 2766 1069 2766 1631 
L 2766 1759 
L 2194 1759 
z
M 3341 1997 
L 3341 0 
L 2766 0 
L 2766 531 
Q 2569 213 2275 61 
Q 1981 -91 1556 -91 
Q 1019 -91 701 211 
Q 384 513 384 1019 
Q 384 1609 779 1909 
Q 1175 2209 1959 2209 
L 2766 2209 
L 2766 2266 
Q 2766 2663 2505 2880 
Q 2244 3097 1772 3097 
Q 1472 3097 1187 3025 
Q 903 2953 641 2809 
L 641 3341 
Q 956 3463 1253 3523 
Q 1550 3584 1831 3584 
Q 2591 3584 2966 3190 
Q 3341 2797 3341 1997 
z
" transform="scale(0.015625)"/>
       <path id="DejaVuSans-53" d="M 1159 525 
L 1159 -1331 
L 581 -1331 
L 581 3500 
L 1159 3500 
L 1159 2969 
Q 1341 3281 1617 3432 
Q 1894 3584 2278 3584 
Q 2916 3584 3314 3078 
Q 3713 2572 3713 1747 
Q 3713 922 3314 415 
Q 2916 -91 2278 -91 
Q 1894 -91 1617 61 
Q 1341 213 1159 525 
z
M 3116 1747 
Q 3116 2381 2855 2742 
Q 2594 3103 2138 3103 
Q 1681 3103 1420 2742 
Q 1159 2381 1159 1747 
Q 1159 1113 1420 752 
Q 1681 391 2138 391 
Q 2594 391 2855 752 
Q 3116 1113 3116 1747 
z
" transform="scale(0.015625)"/>
       <path id="DejaVuSans-48" d="M 3597 1894 
L 3597 1613 
L 953 1613 
Q 991 1019 1311 708 
Q 1631 397 2203 397 
Q 2534 397 2845 478 
Q 3156 559 3463 722 
L 3463 178 
Q 3153 47 2828 -22 
Q 2503 -91 2169 -91 
Q 1331 -91 842 396 
Q 353 884 353 1716 
Q 353 2575 817 3079 
Q 1281 3584 2069 3584 
Q 2775 3584 3186 3129 
Q 3597 2675 3597 1894 
z
M 3022 2063 
Q 3016 2534 2758 2815 
Q 2500 3097 2075 3097 
Q 1594 3097 1305 2825 
Q 1016 2553 972 2059 
L 3022 2063 
z
" transform="scale(0.015625)"/>
       <path id="DejaVuSans-55" d="M 2631 2963 
Q 2534 3019 2420 3045 
Q 2306 3072 2169 3072 
Q 1681 3072 1420 2755 
Q 1159 2438 1159 1844 
L 1159 0 
L 581 0 
L 581 3500 
L 1159 3500 
L 1159 2956 
Q 1341 3275 1631 3429 
Q 1922 3584 2338 3584 
Q 2397 3584 2469 3576 
Q 2541 3569 2628 3553 
L 2631 2963 
z
" transform="scale(0.015625)"/>
       <path id="DejaVuSans-50" d="M 3328 2828 
Q 3544 3216 3844 3400 
Q 4144 3584 4550 3584 
Q 5097 3584 5394 3201 
Q 5691 2819 5691 2113 
L 5691 0 
L 5113 0 
L 5113 2094 
Q 5113 2597 4934 2840 
Q 4756 3084 4391 3084 
Q 3944 3084 3684 2787 
Q 3425 2491 3425 1978 
L 3425 0 
L 2847 0 
L 2847 2094 
Q 2847 2600 2669 2842 
Q 2491 3084 2119 3084 
Q 1678 3084 1418 2786 
Q 1159 2488 1159 1978 
L 1159 0 
L 581 0 
L 581 3500 
L 1159 3500 
L 1159 2956 
Q 1356 3278 1631 3431 
Q 1906 3584 2284 3584 
Q 2666 3584 2933 3390 
Q 3200 3197 3328 2828 
z
" transform="scale(0.015625)"/>
       <path id="DejaVuSans-57" d="M 1172 4494 
L 1172 3500 
L 2356 3500 
L 2356 3053 
L 1172 3053 
L 1172 1153 
Q 1172 725 1289 603 
Q 1406 481 1766 481 
L 2356 481 
L 2356 0 
L 1766 0 
Q 1100 0 847 248 
Q 594 497 594 1153 
L 594 3053 
L 172 3053 
L 172 3500 
L 594 3500 
L 594 4494 
L 1172 4494 
z
" transform="scale(0.015625)"/>
       <path id="DejaVuSans-Oblique-352" d="M 2016 397 
Q 2428 394 2628 159 
Q 2844 -88 2772 -463 
Q 2700 -822 2422 -1072 
Q 2119 -1344 1609 -1344 
Q 1656 -1109 1700 -872 
Q 1913 -888 2072 -750 
Q 2194 -641 2216 -525 
Q 2247 -359 2175 -222 
Q 2100 -91 1922 -91 
Q -25 -91 241 1275 
Q 422 2213 1516 2488 
Q 663 2600 822 3413 
Q 941 4028 1678 4284 
L 1028 4284 
L 1141 4863 
L 3606 4863 
L 3494 4284 
Q 1528 4284 1350 3375 
Q 1234 2778 2881 2750 
L 2778 2219 
Q 1009 2288 819 1275 
Q 659 428 2016 397 
z
" transform="scale(0.015625)"/>
       <path id="DejaVuSansDisplay-4" d="M 313 1978 
L 6088 1978 
L 6088 1528 
L 313 1528 
L 313 1978 
z
" transform="scale(0.015625)"/>
       <path id="DejaVuSans-4c" d="M 603 3500 
L 1178 3500 
L 1178 0 
L 603 0 
L 603 3500 
z
M 603 4863 
L 1178 4863 
L 1178 4134 
L 603 4134 
L 603 4863 
z
" transform="scale(0.015625)"/>
       <path id="DejaVuSans-51" d="M 3513 2113 
L 3513 0 
L 2938 0 
L 2938 2094 
Q 2938 2591 2744 2837 
Q 2550 3084 2163 3084 
Q 1697 3084 1428 2787 
Q 1159 2491 1159 1978 
L 1159 0 
L 581 0 
L 581 3500 
L 1159 3500 
L 1159 2956 
Q 1366 3272 1645 3428 
Q 1925 3584 2291 3584 
Q 2894 3584 3203 3211 
Q 3513 2838 3513 2113 
z
" transform="scale(0.015625)"/>
       <path id="DejaVuSans-10" d="M 313 2009 
L 1997 2009 
L 1997 1497 
L 313 1497 
L 313 2009 
z
" transform="scale(0.015625)"/>
       <path id="DejaVuSans-52" d="M 1959 3097 
Q 1497 3097 1228 2736 
Q 959 2375 959 1747 
Q 959 1119 1226 758 
Q 1494 397 1959 397 
Q 2419 397 2687 759 
Q 2956 1122 2956 1747 
Q 2956 2369 2687 2733 
Q 2419 3097 1959 3097 
z
M 1959 3584 
Q 2709 3584 3137 3096 
Q 3566 2609 3566 1747 
Q 3566 888 3137 398 
Q 2709 -91 1959 -91 
Q 1206 -91 779 398 
Q 353 888 353 1747 
Q 353 2609 779 3096 
Q 1206 3584 1959 3584 
z
" transform="scale(0.015625)"/>
       <path id="DejaVuSans-4a" d="M 2906 1791 
Q 2906 2416 2648 2759 
Q 2391 3103 1925 3103 
Q 1463 3103 1205 2759 
Q 947 2416 947 1791 
Q 947 1169 1205 825 
Q 1463 481 1925 481 
Q 2391 481 2648 825 
Q 2906 1169 2906 1791 
z
M 3481 434 
Q 3481 -459 3084 -895 
Q 2688 -1331 1869 -1331 
Q 1566 -1331 1297 -1286 
Q 1028 -1241 775 -1147 
L 775 -588 
Q 1028 -725 1275 -790 
Q 1522 -856 1778 -856 
Q 2344 -856 2625 -561 
Q 2906 -266 2906 331 
L 2906 616 
Q 2728 306 2450 153 
Q 2172 0 1784 0 
Q 1141 0 747 490 
Q 353 981 353 1791 
Q 353 2603 747 3093 
Q 1141 3584 1784 3584 
Q 2172 3584 2450 3431 
Q 2728 3278 2906 2969 
L 2906 3500 
L 3481 3500 
L 3481 434 
z
" transform="scale(0.015625)"/>
      </defs>
      <use xlink:href="#DejaVuSans-2a" transform="translate(0 0.015625)"/>
      <use xlink:href="#DejaVuSans-33" transform="translate(77.490234 0.015625)"/>
      <use xlink:href="#DejaVuSans-27" transform="translate(137.792969 0.015625)"/>
      <use xlink:href="#DejaVuSans-3" transform="translate(214.794922 0.015625)"/>
      <use xlink:href="#DejaVuSans-56" transform="translate(246.582031 0.015625)"/>
      <use xlink:href="#DejaVuSans-4b" transform="translate(298.681641 0.015625)"/>
      <use xlink:href="#DejaVuSans-44" transform="translate(362.060547 0.015625)"/>
      <use xlink:href="#DejaVuSans-53" transform="translate(423.339844 0.015625)"/>
      <use xlink:href="#DejaVuSans-48" transform="translate(486.816406 0.015625)"/>
      <use xlink:href="#DejaVuSans-3" transform="translate(548.339844 0.015625)"/>
      <use xlink:href="#DejaVuSans-53" transform="translate(580.126953 0.015625)"/>
      <use xlink:href="#DejaVuSans-44" transform="translate(643.603516 0.015625)"/>
      <use xlink:href="#DejaVuSans-55" transform="translate(704.882812 0.015625)"/>
      <use xlink:href="#DejaVuSans-44" transform="translate(745.996094 0.015625)"/>
      <use xlink:href="#DejaVuSans-50" transform="translate(807.275391 0.015625)"/>
      <use xlink:href="#DejaVuSans-48" transform="translate(904.6875 0.015625)"/>
      <use xlink:href="#DejaVuSans-57" transform="translate(966.210938 0.015625)"/>
      <use xlink:href="#DejaVuSans-48" transform="translate(1005.419922 0.015625)"/>
      <use xlink:href="#DejaVuSans-55" transform="translate(1066.943359 0.015625)"/>
      <use xlink:href="#DejaVuSans-3" transform="translate(1108.056641 0.015625)"/>
      <use xlink:href="#DejaVuSans-Oblique-352" transform="translate(1139.84375 0.015625)"/>
      <use xlink:href="#DejaVuSans-3" transform="translate(1195.605469 0.015625)"/>
      <use xlink:href="#DejaVuSansDisplay-4" transform="translate(1227.392578 0.015625)"/>
      <use xlink:href="#DejaVuSans-3" transform="translate(1327.392578 0.015625)"/>
      <use xlink:href="#DejaVuSans-4c" transform="translate(1359.179688 0.015625)"/>
      <use xlink:href="#DejaVuSans-51" transform="translate(1386.962891 0.015625)"/>
      <use xlink:href="#DejaVuSans-57" transform="translate(1450.341797 0.015625)"/>
      <use xlink:href="#DejaVuSans-48" transform="translate(1489.550781 0.015625)"/>
      <use xlink:href="#DejaVuSans-55" transform="translate(1551.074219 0.015625)"/>
      <use xlink:href="#DejaVuSans-10" transform="translate(1586.1875 0.015625)"/>
      <use xlink:href="#DejaVuSans-56" transform="translate(1622.271484 0.015625)"/>
      <use xlink:href="#DejaVuSans-48" transform="translate(1674.371094 0.015625)"/>
      <use xlink:href="#DejaVuSans-56" transform="translate(1735.894531 0.015625)"/>
      <use xlink:href="#DejaVuSans-56" transform="translate(1787.994141 0.015625)"/>
      <use xlink:href="#DejaVuSans-4c" transform="translate(1840.09375 0.015625)"/>
      <use xlink:href="#DejaVuSans-52" transform="translate(1867.876953 0.015625)"/>
      <use xlink:href="#DejaVuSans-51" transform="translate(1929.058594 0.015625)"/>
      <use xlink:href="#DejaVuSans-3" transform="translate(1992.4375 0.015625)"/>
      <use xlink:href="#DejaVuSans-4a" transform="translate(2024.224609 0.015625)"/>
      <use xlink:href="#DejaVuSans-44" transform="translate(2087.701172 0.015625)"/>
      <use xlink:href="#DejaVuSans-53" transform="translate(2148.980469 0.015625)"/>
      <use xlink:href="#DejaVuSans-56" transform="translate(2212.457031 0.015625)"/>
     </g>
    </g>
   </g>
   <g id="matplotlib.axis_2">
    <g id="ytick_1">
     <g id="line2d_6">
      <path d="M 57.15 244.078125 
L 419.85 244.078125 
" clip-path="url(#pd985de3d35)" style="fill: none; stroke: #cccccc; stroke-linecap: round"/>
     </g>
     <g id="text_7">
      <!-- 0 -->
      <g style="fill: #262626" transform="translate(41.2875 247.876953) scale(0.1 -0.1)">
       <use xlink:href="#DejaVuSans-13"/>
      </g>
     </g>
    </g>
    <g id="ytick_2">
     <g id="line2d_7">
      <path d="M 57.15 215.691028 
L 419.85 215.691028 
" clip-path="url(#pd985de3d35)" style="fill: none; stroke: #cccccc; stroke-linecap: round"/>
     </g>
     <g id="text_8">
      <!-- 500 -->
      <g style="fill: #262626" transform="translate(28.5625 219.489856) scale(0.1 -0.1)">
       <use xlink:href="#DejaVuSans-18"/>
       <use xlink:href="#DejaVuSans-13" transform="translate(63.625 0)"/>
       <use xlink:href="#DejaVuSans-13" transform="translate(127.25 0)"/>
      </g>
     </g>
    </g>
    <g id="ytick_3">
     <g id="line2d_8">
      <path d="M 57.15 187.303931 
L 419.85 187.303931 
" clip-path="url(#pd985de3d35)" style="fill: none; stroke: #cccccc; stroke-linecap: round"/>
     </g>
     <g id="text_9">
      <!-- 1000 -->
      <g style="fill: #262626" transform="translate(22.2 191.10276) scale(0.1 -0.1)">
       <use xlink:href="#DejaVuSans-14"/>
       <use xlink:href="#DejaVuSans-13" transform="translate(63.625 0)"/>
       <use xlink:href="#DejaVuSans-13" transform="translate(127.25 0)"/>
       <use xlink:href="#DejaVuSans-13" transform="translate(190.875 0)"/>
      </g>
     </g>
    </g>
    <g id="ytick_4">
     <g id="line2d_9">
      <path d="M 57.15 158.916835 
L 419.85 158.916835 
" clip-path="url(#pd985de3d35)" style="fill: none; stroke: #cccccc; stroke-linecap: round"/>
     </g>
     <g id="text_10">
      <!-- 1500 -->
      <g style="fill: #262626" transform="translate(22.2 162.715663) scale(0.1 -0.1)">
       <use xlink:href="#DejaVuSans-14"/>
       <use xlink:href="#DejaVuSans-18" transform="translate(63.625 0)"/>
       <use xlink:href="#DejaVuSans-13" transform="translate(127.25 0)"/>
       <use xlink:href="#DejaVuSans-13" transform="translate(190.875 0)"/>
      </g>
     </g>
    </g>
    <g id="ytick_5">
     <g id="line2d_10">
      <path d="M 57.15 130.529738 
L 419.85 130.529738 
" clip-path="url(#pd985de3d35)" style="fill: none; stroke: #cccccc; stroke-linecap: round"/>
     </g>
     <g id="text_11">
      <!-- 2000 -->
      <g style="fill: #262626" transform="translate(22.2 134.328566) scale(0.1 -0.1)">
       <use xlink:href="#DejaVuSans-15"/>
       <use xlink:href="#DejaVuSans-13" transform="translate(63.625 0)"/>
       <use xlink:href="#DejaVuSans-13" transform="translate(127.25 0)"/>
       <use xlink:href="#DejaVuSans-13" transform="translate(190.875 0)"/>
      </g>
     </g>
    </g>
    <g id="ytick_6">
     <g id="line2d_11">
      <path d="M 57.15 102.142641 
L 419.85 102.142641 
" clip-path="url(#pd985de3d35)" style="fill: none; stroke: #cccccc; stroke-linecap: round"/>
     </g>
     <g id="text_12">
      <!-- 2500 -->
      <g style="fill: #262626" transform="translate(22.2 105.941469) scale(0.1 -0.1)">
       <use xlink:href="#DejaVuSans-15"/>
       <use xlink:href="#DejaVuSans-18" transform="translate(63.625 0)"/>
       <use xlink:href="#DejaVuSans-13" transform="translate(127.25 0)"/>
       <use xlink:href="#DejaVuSans-13" transform="translate(190.875 0)"/>
      </g>
     </g>
    </g>
    <g id="ytick_7">
     <g id="line2d_12">
      <path d="M 57.15 73.755544 
L 419.85 73.755544 
" clip-path="url(#pd985de3d35)" style="fill: none; stroke: #cccccc; stroke-linecap: round"/>
     </g>
     <g id="text_13">
      <!-- 3000 -->
      <g style="fill: #262626" transform="translate(22.2 77.554372) scale(0.1 -0.1)">
       <defs>
        <path id="DejaVuSans-16" d="M 2597 2516 
Q 3050 2419 3304 2112 
Q 3559 1806 3559 1356 
Q 3559 666 3084 287 
Q 2609 -91 1734 -91 
Q 1441 -91 1130 -33 
Q 819 25 488 141 
L 488 750 
Q 750 597 1062 519 
Q 1375 441 1716 441 
Q 2309 441 2620 675 
Q 2931 909 2931 1356 
Q 2931 1769 2642 2001 
Q 2353 2234 1838 2234 
L 1294 2234 
L 1294 2753 
L 1863 2753 
Q 2328 2753 2575 2939 
Q 2822 3125 2822 3475 
Q 2822 3834 2567 4026 
Q 2313 4219 1838 4219 
Q 1578 4219 1281 4162 
Q 984 4106 628 3988 
L 628 4550 
Q 988 4650 1302 4700 
Q 1616 4750 1894 4750 
Q 2613 4750 3031 4423 
Q 3450 4097 3450 3541 
Q 3450 3153 3228 2886 
Q 3006 2619 2597 2516 
z
" transform="scale(0.015625)"/>
       </defs>
       <use xlink:href="#DejaVuSans-16"/>
       <use xlink:href="#DejaVuSans-13" transform="translate(63.625 0)"/>
       <use xlink:href="#DejaVuSans-13" transform="translate(127.25 0)"/>
       <use xlink:href="#DejaVuSans-13" transform="translate(190.875 0)"/>
      </g>
     </g>
    </g>
    <g id="ytick_8">
     <g id="line2d_13">
      <path d="M 57.15 45.368448 
L 419.85 45.368448 
" clip-path="url(#pd985de3d35)" style="fill: none; stroke: #cccccc; stroke-linecap: round"/>
     </g>
     <g id="text_14">
      <!-- 3500 -->
      <g style="fill: #262626" transform="translate(22.2 49.167276) scale(0.1 -0.1)">
       <use xlink:href="#DejaVuSans-16"/>
       <use xlink:href="#DejaVuSans-18" transform="translate(63.625 0)"/>
       <use xlink:href="#DejaVuSans-13" transform="translate(127.25 0)"/>
       <use xlink:href="#DejaVuSans-13" transform="translate(190.875 0)"/>
      </g>
     </g>
    </g>
    <g id="text_15">
     <!-- users -->
     <g style="fill: #262626" transform="translate(15.557422 148.059297) rotate(-90) scale(0.11 -0.11)">
      <defs>
       <path id="DejaVuSans-58" d="M 544 1381 
L 544 3500 
L 1119 3500 
L 1119 1403 
Q 1119 906 1312 657 
Q 1506 409 1894 409 
Q 2359 409 2629 706 
Q 2900 1003 2900 1516 
L 2900 3500 
L 3475 3500 
L 3475 0 
L 2900 0 
L 2900 538 
Q 2691 219 2414 64 
Q 2138 -91 1772 -91 
Q 1169 -91 856 284 
Q 544 659 544 1381 
z
M 1991 3584 
L 1991 3584 
z
" transform="scale(0.015625)"/>
      </defs>
      <use xlink:href="#DejaVuSans-58"/>
      <use xlink:href="#DejaVuSans-56" transform="translate(63.375 0)"/>
      <use xlink:href="#DejaVuSans-48" transform="translate(115.46875 0)"/>
      <use xlink:href="#DejaVuSans-55" transform="translate(177 0)"/>
      <use xlink:href="#DejaVuSans-56" transform="translate(218.109375 0)"/>
     </g>
    </g>
   </g>
   <g id="patch_3">
    <path d="M -184.76304 244.078125 
L 104.893659 244.078125 
L 104.893659 22.318125 
L -184.76304 22.318125 
z
" clip-path="url(#pd985de3d35)" style="fill: #0072b2; opacity: 0.12; stroke: #0072b2; stroke-linejoin: miter"/>
   </g>
   <g id="patch_4">
    <path d="M 104.893659 244.078125 
L 130.028897 244.078125 
L 130.028897 22.318125 
L 104.893659 22.318125 
z
" clip-path="url(#pd985de3d35)" style="fill: #e69f00; opacity: 0.18; stroke: #e69f00; stroke-linejoin: miter"/>
   </g>
   <g id="patch_5">
    <path d="M 130.028897 244.078125 
L 419.685596 244.078125 
L 419.685596 22.318125 
L 130.028897 22.318125 
z
" clip-path="url(#pd985de3d35)" style="fill: #d55e00; opacity: 0.12; stroke: #d55e00; stroke-linejoin: miter"/>
   </g>
   <g id="patch_6">
    <path d="M 57.210472 244.078125 
L 63.251724 244.078125 
L 63.251724 239.309093 
L 57.210472 239.309093 
z
" clip-path="url(#pd985de3d35)" style="fill: #56b4e9; stroke: #ffffff; stroke-width: 0.3; stroke-linejoin: miter"/>
   </g>
   <g id="patch_7">
    <path d="M 63.251724 244.078125 
L 69.292976 244.078125 
L 69.292976 235.675544 
L 63.251724 235.675544 
z
" clip-path="url(#pd985de3d35)" style="fill: #56b4e9; stroke: #ffffff; stroke-width: 0.3; stroke-linejoin: miter"/>
   </g>
   <g id="patch_8">
    <path d="M 69.292976 244.078125 
L 75.334228 244.078125 
L 75.334228 233.17748 
L 69.292976 233.17748 
z
" clip-path="url(#pd985de3d35)" style="fill: #56b4e9; stroke: #ffffff; stroke-width: 0.3; stroke-linejoin: miter"/>
   </g>
   <g id="patch_9">
    <path d="M 75.334228 244.078125 
L 81.37548 244.078125 
L 81.37548 232.09877 
L 75.334228 232.09877 
z
" clip-path="url(#pd985de3d35)" style="fill: #56b4e9; stroke: #ffffff; stroke-width: 0.3; stroke-linejoin: miter"/>
   </g>
   <g id="patch_10">
    <path d="M 81.37548 244.078125 
L 87.416732 244.078125 
L 87.416732 231.190383 
L 81.37548 231.190383 
z
" clip-path="url(#pd985de3d35)" style="fill: #56b4e9; stroke: #ffffff; stroke-width: 0.3; stroke-linejoin: miter"/>
   </g>
   <g id="patch_11">
    <path d="M 87.416732 244.078125 
L 93.457984 244.078125 
L 93.457984 230.509093 
L 87.416732 230.509093 
z
" clip-path="url(#pd985de3d35)" style="fill: #56b4e9; stroke: #ffffff; stroke-width: 0.3; stroke-linejoin: miter"/>
   </g>
   <g id="patch_12">
    <path d="M 93.457984 244.078125 
L 99.499236 244.078125 
L 99.499236 228.749093 
L 93.457984 228.749093 
z
" clip-path="url(#pd985de3d35)" style="fill: #56b4e9; stroke: #ffffff; stroke-width: 0.3; stroke-linejoin: miter"/>
   </g>
   <g id="patch_13">
    <path d="M 99.499236 244.078125 
L 105.540489 244.078125 
L 105.540489 228.238125 
L 99.499236 228.238125 
z
" clip-path="url(#pd985de3d35)" style="fill: #56b4e9; stroke: #ffffff; stroke-width: 0.3; stroke-linejoin: miter"/>
   </g>
   <g id="patch_14">
    <path d="M 105.540489 244.078125 
L 111.581741 244.078125 
L 111.581741 232.78006 
L 105.540489 232.78006 
z
" clip-path="url(#pd985de3d35)" style="fill: #56b4e9; stroke: #ffffff; stroke-width: 0.3; stroke-linejoin: miter"/>
   </g>
   <g id="patch_15">
    <path d="M 111.581741 244.078125 
L 117.622993 244.078125 
L 117.622993 239.53619 
L 111.581741 239.53619 
z
" clip-path="url(#pd985de3d35)" style="fill: #56b4e9; stroke: #ffffff; stroke-width: 0.3; stroke-linejoin: miter"/>
   </g>
   <g id="patch_16">
    <path d="M 117.622993 244.078125 
L 123.664245 244.078125 
L 123.664245 237.946512 
L 117.622993 237.946512 
z
" clip-path="url(#pd985de3d35)" style="fill: #56b4e9; stroke: #ffffff; stroke-width: 0.3; stroke-linejoin: miter"/>
   </g>
   <g id="patch_17">
    <path d="M 123.664245 244.078125 
L 129.705497 244.078125 
L 129.705497 231.133609 
L 123.664245 231.133609 
z
" clip-path="url(#pd985de3d35)" style="fill: #56b4e9; stroke: #ffffff; stroke-width: 0.3; stroke-linejoin: miter"/>
   </g>
   <g id="patch_18">
    <path d="M 129.705497 244.078125 
L 135.746749 244.078125 
L 135.746749 227.50006 
L 129.705497 227.50006 
z
" clip-path="url(#pd985de3d35)" style="fill: #56b4e9; stroke: #ffffff; stroke-width: 0.3; stroke-linejoin: miter"/>
   </g>
   <g id="patch_19">
    <path d="M 135.746749 244.078125 
L 141.788001 244.078125 
L 141.788001 223.866512 
L 135.746749 223.866512 
z
" clip-path="url(#pd985de3d35)" style="fill: #56b4e9; stroke: #ffffff; stroke-width: 0.3; stroke-linejoin: miter"/>
   </g>
   <g id="patch_20">
    <path d="M 141.788001 244.078125 
L 147.829253 244.078125 
L 147.829253 217.848448 
L 141.788001 217.848448 
z
" clip-path="url(#pd985de3d35)" style="fill: #56b4e9; stroke: #ffffff; stroke-width: 0.3; stroke-linejoin: miter"/>
   </g>
   <g id="patch_21">
    <path d="M 147.829253 244.078125 
L 153.870505 244.078125 
L 153.870505 212.795544 
L 147.829253 212.795544 
z
" clip-path="url(#pd985de3d35)" style="fill: #56b4e9; stroke: #ffffff; stroke-width: 0.3; stroke-linejoin: miter"/>
   </g>
   <g id="patch_22">
    <path d="M 153.870505 244.078125 
L 159.911757 244.078125 
L 159.911757 200.361996 
L 153.870505 200.361996 
z
" clip-path="url(#pd985de3d35)" style="fill: #56b4e9; stroke: #ffffff; stroke-width: 0.3; stroke-linejoin: miter"/>
   </g>
   <g id="patch_23">
    <path d="M 159.911757 244.078125 
L 165.953009 244.078125 
L 165.953009 182.421351 
L 159.911757 182.421351 
z
" clip-path="url(#pd985de3d35)" style="fill: #56b4e9; stroke: #ffffff; stroke-width: 0.3; stroke-linejoin: miter"/>
   </g>
   <g id="patch_24">
    <path d="M 165.953009 244.078125 
L 171.994261 244.078125 
L 171.994261 164.934899 
L 165.953009 164.934899 
z
" clip-path="url(#pd985de3d35)" style="fill: #56b4e9; stroke: #ffffff; stroke-width: 0.3; stroke-linejoin: miter"/>
   </g>
   <g id="patch_25">
    <path d="M 171.994261 244.078125 
L 178.035513 244.078125 
L 178.035513 144.49619 
L 171.994261 144.49619 
z
" clip-path="url(#pd985de3d35)" style="fill: #56b4e9; stroke: #ffffff; stroke-width: 0.3; stroke-linejoin: miter"/>
   </g>
   <g id="patch_26">
    <path d="M 178.035513 244.078125 
L 184.076765 244.078125 
L 184.076765 107.309093 
L 178.035513 107.309093 
z
" clip-path="url(#pd985de3d35)" style="fill: #56b4e9; stroke: #ffffff; stroke-width: 0.3; stroke-linejoin: miter"/>
   </g>
   <g id="patch_27">
    <path d="M 184.076765 244.078125 
L 190.118017 244.078125 
L 190.118017 82.839415 
L 184.076765 82.839415 
z
" clip-path="url(#pd985de3d35)" style="fill: #56b4e9; stroke: #ffffff; stroke-width: 0.3; stroke-linejoin: miter"/>
   </g>
   <g id="patch_28">
    <path d="M 190.118017 244.078125 
L 196.159269 244.078125 
L 196.159269 47.582641 
L 190.118017 47.582641 
z
" clip-path="url(#pd985de3d35)" style="fill: #56b4e9; stroke: #ffffff; stroke-width: 0.3; stroke-linejoin: miter"/>
   </g>
   <g id="patch_29">
    <path d="M 196.159269 244.078125 
L 202.200522 244.078125 
L 202.200522 37.590383 
L 196.159269 37.590383 
z
" clip-path="url(#pd985de3d35)" style="fill: #56b4e9; stroke: #ffffff; stroke-width: 0.3; stroke-linejoin: miter"/>
   </g>
   <g id="patch_30">
    <path d="M 202.200522 244.078125 
L 208.241774 244.078125 
L 208.241774 32.878125 
L 202.200522 32.878125 
z
" clip-path="url(#pd985de3d35)" style="fill: #56b4e9; stroke: #ffffff; stroke-width: 0.3; stroke-linejoin: miter"/>
   </g>
   <g id="patch_31">
    <path d="M 208.241774 244.078125 
L 214.283026 244.078125 
L 214.283026 44.743931 
L 208.241774 44.743931 
z
" clip-path="url(#pd985de3d35)" style="fill: #56b4e9; stroke: #ffffff; stroke-width: 0.3; stroke-linejoin: miter"/>
   </g>
   <g id="patch_32">
    <path d="M 214.283026 244.078125 
L 220.324278 244.078125 
L 220.324278 73.074254 
L 214.283026 73.074254 
z
" clip-path="url(#pd985de3d35)" style="fill: #56b4e9; stroke: #ffffff; stroke-width: 0.3; stroke-linejoin: miter"/>
   </g>
   <g id="patch_33">
    <path d="M 220.324278 244.078125 
L 226.36553 244.078125 
L 226.36553 95.556835 
L 220.324278 95.556835 
z
" clip-path="url(#pd985de3d35)" style="fill: #56b4e9; stroke: #ffffff; stroke-width: 0.3; stroke-linejoin: miter"/>
   </g>
   <g id="patch_34">
    <path d="M 226.36553 244.078125 
L 232.406782 244.078125 
L 232.406782 126.385222 
L 226.36553 126.385222 
z
" clip-path="url(#pd985de3d35)" style="fill: #56b4e9; stroke: #ffffff; stroke-width: 0.3; stroke-linejoin: miter"/>
   </g>
   <g id="patch_35">
    <path d="M 232.406782 244.078125 
L 238.448034 244.078125 
L 238.448034 158.746512 
L 232.406782 158.746512 
z
" clip-path="url(#pd985de3d35)" style="fill: #56b4e9; stroke: #ffffff; stroke-width: 0.3; stroke-linejoin: miter"/>
   </g>
   <g id="patch_36">
    <path d="M 238.448034 244.078125 
L 244.489286 244.078125 
L 244.489286 175.949093 
L 238.448034 175.949093 
z
" clip-path="url(#pd985de3d35)" style="fill: #56b4e9; stroke: #ffffff; stroke-width: 0.3; stroke-linejoin: miter"/>
   </g>
   <g id="patch_37">
    <path d="M 244.489286 244.078125 
L 250.530538 244.078125 
L 250.530538 192.640706 
L 244.489286 192.640706 
z
" clip-path="url(#pd985de3d35)" style="fill: #56b4e9; stroke: #ffffff; stroke-width: 0.3; stroke-linejoin: miter"/>
   </g>
   <g id="patch_38">
    <path d="M 250.530538 244.078125 
L 256.57179 244.078125 
L 256.57179 203.030383 
L 250.530538 203.030383 
z
" clip-path="url(#pd985de3d35)" style="fill: #56b4e9; stroke: #ffffff; stroke-width: 0.3; stroke-linejoin: miter"/>
   </g>
   <g id="patch_39">
    <path d="M 256.57179 244.078125 
L 262.613042 244.078125 
L 262.613042 213.363286 
L 256.57179 213.363286 
z
" clip-path="url(#pd985de3d35)" style="fill: #56b4e9; stroke: #ffffff; stroke-width: 0.3; stroke-linejoin: miter"/>
   </g>
   <g id="patch_40">
    <path d="M 262.613042 244.078125 
L 268.654294 244.078125 
L 268.654294 218.189093 
L 262.613042 218.189093 
z
" clip-path="url(#pd985de3d35)" style="fill: #56b4e9; stroke: #ffffff; stroke-width: 0.3; stroke-linejoin: miter"/>
   </g>
   <g id="patch_41">
    <path d="M 268.654294 244.078125 
L 274.695546 244.078125 
L 274.695546 223.469093 
L 268.654294 223.469093 
z
" clip-path="url(#pd985de3d35)" style="fill: #56b4e9; stroke: #ffffff; stroke-width: 0.3; stroke-linejoin: miter"/>
   </g>
   <g id="patch_42">
    <path d="M 274.695546 244.078125 
L 280.736798 244.078125 
L 280.736798 225.967157 
L 274.695546 225.967157 
z
" clip-path="url(#pd985de3d35)" style="fill: #56b4e9; stroke: #ffffff; stroke-width: 0.3; stroke-linejoin: miter"/>
   </g>
   <g id="patch_43">
    <path d="M 280.736798 244.078125 
L 286.77805 244.078125 
L 286.77805 228.351673 
L 280.736798 228.351673 
z
" clip-path="url(#pd985de3d35)" style="fill: #56b4e9; stroke: #ffffff; stroke-width: 0.3; stroke-linejoin: miter"/>
   </g>
   <g id="patch_44">
    <path d="M 286.77805 244.078125 
L 292.819302 244.078125 
L 292.819302 228.067802 
L 286.77805 228.067802 
z
" clip-path="url(#pd985de3d35)" style="fill: #56b4e9; stroke: #ffffff; stroke-width: 0.3; stroke-linejoin: miter"/>
   </g>
   <g id="patch_45">
    <path d="M 292.819302 244.078125 
L 298.860555 244.078125 
L 298.860555 231.531028 
L 292.819302 231.531028 
z
" clip-path="url(#pd985de3d35)" style="fill: #56b4e9; stroke: #ffffff; stroke-width: 0.3; stroke-linejoin: miter"/>
   </g>
   <g id="patch_46">
    <path d="M 298.860555 244.078125 
L 304.901807 244.078125 
L 304.901807 230.33877 
L 298.860555 230.33877 
z
" clip-path="url(#pd985de3d35)" style="fill: #56b4e9; stroke: #ffffff; stroke-width: 0.3; stroke-linejoin: miter"/>
   </g>
   <g id="patch_47">
    <path d="M 304.901807 244.078125 
L 310.943059 244.078125 
L 310.943059 232.893609 
L 304.901807 232.893609 
z
" clip-path="url(#pd985de3d35)" style="fill: #56b4e9; stroke: #ffffff; stroke-width: 0.3; stroke-linejoin: miter"/>
   </g>
   <g id="patch_48">
    <path d="M 310.943059 244.078125 
L 316.984311 244.078125 
L 316.984311 233.461351 
L 310.943059 233.461351 
z
" clip-path="url(#pd985de3d35)" style="fill: #56b4e9; stroke: #ffffff; stroke-width: 0.3; stroke-linejoin: miter"/>
   </g>
   <g id="patch_49">
    <path d="M 316.984311 244.078125 
L 323.025563 244.078125 
L 323.025563 234.93748 
L 316.984311 234.93748 
z
" clip-path="url(#pd985de3d35)" style="fill: #56b4e9; stroke: #ffffff; stroke-width: 0.3; stroke-linejoin: miter"/>
   </g>
   <g id="patch_50">
    <path d="M 323.025563 244.078125 
L 329.066815 244.078125 
L 329.066815 233.801996 
L 323.025563 233.801996 
z
" clip-path="url(#pd985de3d35)" style="fill: #56b4e9; stroke: #ffffff; stroke-width: 0.3; stroke-linejoin: miter"/>
   </g>
   <g id="patch_51">
    <path d="M 329.066815 244.078125 
L 335.108067 244.078125 
L 335.108067 234.25619 
L 329.066815 234.25619 
z
" clip-path="url(#pd985de3d35)" style="fill: #56b4e9; stroke: #ffffff; stroke-width: 0.3; stroke-linejoin: miter"/>
   </g>
   <g id="patch_52">
    <path d="M 335.108067 244.078125 
L 341.149319 244.078125 
L 341.149319 234.767157 
L 335.108067 234.767157 
z
" clip-path="url(#pd985de3d35)" style="fill: #56b4e9; stroke: #ffffff; stroke-width: 0.3; stroke-linejoin: miter"/>
   </g>
   <g id="patch_53">
    <path d="M 341.149319 244.078125 
L 347.190571 244.078125 
L 347.190571 235.391673 
L 341.149319 235.391673 
z
" clip-path="url(#pd985de3d35)" style="fill: #56b4e9; stroke: #ffffff; stroke-width: 0.3; stroke-linejoin: miter"/>
   </g>
   <g id="patch_54">
    <path d="M 347.190571 244.078125 
L 353.231823 244.078125 
L 353.231823 234.483286 
L 347.190571 234.483286 
z
" clip-path="url(#pd985de3d35)" style="fill: #56b4e9; stroke: #ffffff; stroke-width: 0.3; stroke-linejoin: miter"/>
   </g>
   <g id="patch_55">
    <path d="M 353.231823 244.078125 
L 359.273075 244.078125 
L 359.273075 236.583931 
L 353.231823 236.583931 
z
" clip-path="url(#pd985de3d35)" style="fill: #56b4e9; stroke: #ffffff; stroke-width: 0.3; stroke-linejoin: miter"/>
   </g>
   <g id="patch_56">
    <path d="M 359.273075 244.078125 
L 365.314327 244.078125 
L 365.314327 238.400706 
L 359.273075 238.400706 
z
" clip-path="url(#pd985de3d35)" style="fill: #56b4e9; stroke: #ffffff; stroke-width: 0.3; stroke-linejoin: miter"/>
   </g>
   <g id="patch_57">
    <path d="M 365.314327 244.078125 
L 371.355579 244.078125 
L 371.355579 239.13877 
L 365.314327 239.13877 
z
" clip-path="url(#pd985de3d35)" style="fill: #56b4e9; stroke: #ffffff; stroke-width: 0.3; stroke-linejoin: miter"/>
   </g>
   <g id="patch_58">
    <path d="M 371.355579 244.078125 
L 377.396831 244.078125 
L 377.396831 239.13877 
L 371.355579 239.13877 
z
" clip-path="url(#pd985de3d35)" style="fill: #56b4e9; stroke: #ffffff; stroke-width: 0.3; stroke-linejoin: miter"/>
   </g>
   <g id="patch_59">
    <path d="M 377.396831 244.078125 
L 383.438083 244.078125 
L 383.438083 237.77619 
L 377.396831 237.77619 
z
" clip-path="url(#pd985de3d35)" style="fill: #56b4e9; stroke: #ffffff; stroke-width: 0.3; stroke-linejoin: miter"/>
   </g>
   <g id="patch_60">
    <path d="M 383.438083 244.078125 
L 389.479335 244.078125 
L 389.479335 239.706512 
L 383.438083 239.706512 
z
" clip-path="url(#pd985de3d35)" style="fill: #56b4e9; stroke: #ffffff; stroke-width: 0.3; stroke-linejoin: miter"/>
   </g>
   <g id="patch_61">
    <path d="M 389.479335 244.078125 
L 395.520588 244.078125 
L 395.520588 239.53619 
L 389.479335 239.53619 
z
" clip-path="url(#pd985de3d35)" style="fill: #56b4e9; stroke: #ffffff; stroke-width: 0.3; stroke-linejoin: miter"/>
   </g>
   <g id="patch_62">
    <path d="M 395.520588 244.078125 
L 401.56184 244.078125 
L 401.56184 239.82006 
L 395.520588 239.82006 
z
" clip-path="url(#pd985de3d35)" style="fill: #56b4e9; stroke: #ffffff; stroke-width: 0.3; stroke-linejoin: miter"/>
   </g>
   <g id="patch_63">
    <path d="M 401.56184 244.078125 
L 407.603092 244.078125 
L 407.603092 241.693609 
L 401.56184 241.693609 
z
" clip-path="url(#pd985de3d35)" style="fill: #56b4e9; stroke: #ffffff; stroke-width: 0.3; stroke-linejoin: miter"/>
   </g>
   <g id="patch_64">
    <path d="M 407.603092 244.078125 
L 413.644344 244.078125 
L 413.644344 241.239415 
L 407.603092 241.239415 
z
" clip-path="url(#pd985de3d35)" style="fill: #56b4e9; stroke: #ffffff; stroke-width: 0.3; stroke-linejoin: miter"/>
   </g>
   <g id="patch_65">
    <path d="M 413.644344 244.078125 
L 419.685596 244.078125 
L 419.685596 241.466512 
L 413.644344 241.466512 
z
" clip-path="url(#pd985de3d35)" style="fill: #56b4e9; stroke: #ffffff; stroke-width: 0.3; stroke-linejoin: miter"/>
   </g>
   <g id="line2d_14">
    <path d="M 104.893659 244.078125 
L 104.893659 22.318125 
" clip-path="url(#pd985de3d35)" style="fill: none; stroke-dasharray: 3.7,1.6; stroke-dashoffset: 0; stroke: #0072b2"/>
   </g>
   <g id="line2d_15">
    <path d="M 130.028897 244.078125 
L 130.028897 22.318125 
" clip-path="url(#pd985de3d35)" style="fill: none; stroke-dasharray: 3.7,1.6; stroke-dashoffset: 0; stroke: #d55e00"/>
   </g>
   <g id="patch_66">
    <path d="M 57.15 244.078125 
L 57.15 22.318125 
" style="fill: none; stroke: #cccccc; stroke-width: 1.25; stroke-linejoin: miter; stroke-linecap: square"/>
   </g>
   <g id="patch_67">
    <path d="M 419.85 244.078125 
L 419.85 22.318125 
" style="fill: none; stroke: #cccccc; stroke-width: 1.25; stroke-linejoin: miter; stroke-linecap: square"/>
   </g>
   <g id="patch_68">
    <path d="M 57.15 244.078125 
L 419.85 244.078125 
" style="fill: none; stroke: #cccccc; stroke-width: 1.25; stroke-linejoin: miter; stroke-linecap: square"/>
   </g>
   <g id="patch_69">
    <path d="M 57.15 22.318125 
L 419.85 22.318125 
" style="fill: none; stroke: #cccccc; stroke-width: 1.25; stroke-linejoin: miter; stroke-linecap: square"/>
   </g>
   <g id="text_16">
    <!-- Gaps: GPD shape parameter -->
    <g style="fill: #262626" transform="translate(152.828438 16.318125) scale(0.12 -0.12)">
     <defs>
      <path id="DejaVuSans-1d" d="M 750 794 
L 1409 794 
L 1409 0 
L 750 0 
L 750 794 
z
M 750 3309 
L 1409 3309 
L 1409 2516 
L 750 2516 
L 750 3309 
z
" transform="scale(0.015625)"/>
     </defs>
     <use xlink:href="#DejaVuSans-2a"/>
     <use xlink:href="#DejaVuSans-44" transform="translate(77.484375 0)"/>
     <use xlink:href="#DejaVuSans-53" transform="translate(138.765625 0)"/>
     <use xlink:href="#DejaVuSans-56" transform="translate(202.25 0)"/>
     <use xlink:href="#DejaVuSans-1d" transform="translate(254.34375 0)"/>
     <use xlink:href="#DejaVuSans-3" transform="translate(288.03125 0)"/>
     <use xlink:href="#DejaVuSans-2a" transform="translate(319.8125 0)"/>
     <use xlink:href="#DejaVuSans-33" transform="translate(397.296875 0)"/>
     <use xlink:href="#DejaVuSans-27" transform="translate(457.59375 0)"/>
     <use xlink:href="#DejaVuSans-3" transform="translate(534.59375 0)"/>
     <use xlink:href="#DejaVuSans-56" transform="translate(566.375 0)"/>
     <use xlink:href="#DejaVuSans-4b" transform="translate(618.46875 0)"/>
     <use xlink:href="#DejaVuSans-44" transform="translate(681.84375 0)"/>
     <use xlink:href="#DejaVuSans-53" transform="translate(743.125 0)"/>
     <use xlink:href="#DejaVuSans-48" transform="translate(806.609375 0)"/>
     <use xlink:href="#DejaVuSans-3" transform="translate(868.140625 0)"/>
     <use xlink:href="#DejaVuSans-53" transform="translate(899.921875 0)"/>
     <use xlink:href="#DejaVuSans-44" transform="translate(963.40625 0)"/>
     <use xlink:href="#DejaVuSans-55" transform="translate(1024.6875 0)"/>
     <use xlink:href="#DejaVuSans-44" transform="translate(1065.796875 0)"/>
     <use xlink:href="#DejaVuSans-50" transform="translate(1127.078125 0)"/>
     <use xlink:href="#DejaVuSans-48" transform="translate(1224.484375 0)"/>
     <use xlink:href="#DejaVuSans-57" transform="translate(1286.015625 0)"/>
     <use xlink:href="#DejaVuSans-48" transform="translate(1325.21875 0)"/>
     <use xlink:href="#DejaVuSans-55" transform="translate(1386.75 0)"/>
    </g>
   </g>
   <g id="legend_1">
    <g id="patch_70">
     <path d="M 257.82 40.578125 
L 279.82 40.578125 
L 279.82 32.878125 
L 257.82 32.878125 
z
" style="fill: #0072b2; opacity: 0.4; stroke: #0072b2; stroke-linejoin: miter"/>
    </g>
    <g id="text_17">
     <!-- bounded ($\xi&lt;-0.1$) -->
     <g style="fill: #262626" transform="translate(288.62 40.578125) scale(0.11 -0.11)">
      <defs>
       <path id="DejaVuSans-45" d="M 3116 1747 
Q 3116 2381 2855 2742 
Q 2594 3103 2138 3103 
Q 1681 3103 1420 2742 
Q 1159 2381 1159 1747 
Q 1159 1113 1420 752 
Q 1681 391 2138 391 
Q 2594 391 2855 752 
Q 3116 1113 3116 1747 
z
M 1159 2969 
Q 1341 3281 1617 3432 
Q 1894 3584 2278 3584 
Q 2916 3584 3314 3078 
Q 3713 2572 3713 1747 
Q 3713 922 3314 415 
Q 2916 -91 2278 -91 
Q 1894 -91 1617 61 
Q 1341 213 1159 525 
L 1159 0 
L 581 0 
L 581 4863 
L 1159 4863 
L 1159 2969 
z
" transform="scale(0.015625)"/>
       <path id="DejaVuSans-47" d="M 2906 2969 
L 2906 4863 
L 3481 4863 
L 3481 0 
L 2906 0 
L 2906 525 
Q 2725 213 2448 61 
Q 2172 -91 1784 -91 
Q 1150 -91 751 415 
Q 353 922 353 1747 
Q 353 2572 751 3078 
Q 1150 3584 1784 3584 
Q 2172 3584 2448 3432 
Q 2725 3281 2906 2969 
z
M 947 1747 
Q 947 1113 1208 752 
Q 1469 391 1925 391 
Q 2381 391 2643 752 
Q 2906 1113 2906 1747 
Q 2906 2381 2643 2742 
Q 2381 3103 1925 3103 
Q 1469 3103 1208 2742 
Q 947 2381 947 1747 
z
" transform="scale(0.015625)"/>
       <path id="DejaVuSans-b" d="M 1984 4856 
Q 1566 4138 1362 3434 
Q 1159 2731 1159 2009 
Q 1159 1288 1364 580 
Q 1569 -128 1984 -844 
L 1484 -844 
Q 1016 -109 783 600 
Q 550 1309 550 2009 
Q 550 2706 781 3412 
Q 1013 4119 1484 4856 
L 1984 4856 
z
" transform="scale(0.015625)"/>
       <path id="DejaVuSans-1f" d="M 4684 3150 
L 1459 2003 
L 4684 863 
L 4684 294 
L 678 1747 
L 678 2266 
L 4684 3719 
L 4684 3150 
z
" transform="scale(0.015625)"/>
       <path id="DejaVuSans-c9c" d="M 678 2272 
L 4684 2272 
L 4684 1741 
L 678 1741 
L 678 2272 
z
" transform="scale(0.015625)"/>
       <path id="DejaVuSans-c" d="M 513 4856 
L 1013 4856 
Q 1481 4119 1714 3412 
Q 1947 2706 1947 2009 
Q 1947 1309 1714 600 
Q 1481 -109 1013 -844 
L 513 -844 
Q 928 -128 1133 580 
Q 1338 1288 1338 2009 
Q 1338 2731 1133 3434 
Q 928 4138 513 4856 
z
" transform="scale(0.015625)"/>
      </defs>
      <use xlink:href="#DejaVuSans-45" transform="translate(0 0.015625)"/>
      <use xlink:href="#DejaVuSans-52" transform="translate(63.476562 0.015625)"/>
      <use xlink:href="#DejaVuSans-58" transform="translate(124.658203 0.015625)"/>
      <use xlink:href="#DejaVuSans-51" transform="translate(188.037109 0.015625)"/>
      <use xlink:href="#DejaVuSans-47" transform="translate(251.416016 0.015625)"/>
      <use xlink:href="#DejaVuSans-48" transform="translate(314.892578 0.015625)"/>
      <use xlink:href="#DejaVuSans-47" transform="translate(376.416016 0.015625)"/>
      <use xlink:href="#DejaVuSans-3" transform="translate(439.892578 0.015625)"/>
      <use xlink:href="#DejaVuSans-b" transform="translate(471.679688 0.015625)"/>
      <use xlink:href="#DejaVuSans-Oblique-352" transform="translate(510.693359 0.015625)"/>
      <use xlink:href="#DejaVuSans-1f" transform="translate(585.9375 0.015625)"/>
      <use xlink:href="#DejaVuSans-c9c" transform="translate(689.208984 0.015625)"/>
      <use xlink:href="#DejaVuSans-13" transform="translate(772.998047 0.015625)"/>
      <use xlink:href="#DejaVuSans-11" transform="translate(836.621094 0.015625)"/>
      <use xlink:href="#DejaVuSans-14" transform="translate(868.408203 0.015625)"/>
      <use xlink:href="#DejaVuSans-c" transform="translate(932.03125 0.015625)"/>
     </g>
    </g>
    <g id="patch_71">
     <path d="M 257.82 57.190703 
L 279.82 57.190703 
L 279.82 49.490703 
L 257.82 49.490703 
z
" style="fill: #e69f00; opacity: 0.4; stroke: #e69f00; stroke-linejoin: miter"/>
    </g>
    <g id="text_18">
     <!-- exponential ($|\xi|\leq0.1$) -->
     <g style="fill: #262626" transform="translate(288.62 57.190703) scale(0.11 -0.11)">
      <defs>
       <path id="DejaVuSans-5b" d="M 3513 3500 
L 2247 1797 
L 3578 0 
L 2900 0 
L 1881 1375 
L 863 0 
L 184 0 
L 1544 1831 
L 300 3500 
L 978 3500 
L 1906 2253 
L 2834 3500 
L 3513 3500 
z
" transform="scale(0.015625)"/>
       <path id="DejaVuSans-4f" d="M 603 4863 
L 1178 4863 
L 1178 0 
L 603 0 
L 603 4863 
z
" transform="scale(0.015625)"/>
       <path id="DejaVuSans-5f" d="M 1344 4891 
L 1344 -1509 
L 813 -1509 
L 813 4891 
L 1344 4891 
z
" transform="scale(0.015625)"/>
       <path id="DejaVuSans-cee" d="M 4684 3175 
L 1684 2309 
L 4684 1453 
L 4684 897 
L 678 2047 
L 678 2578 
L 4684 3725 
L 4684 3175 
z
M 678 531 
L 4684 531 
L 4684 0 
L 678 0 
L 678 531 
z
" transform="scale(0.015625)"/>
      </defs>
      <use xlink:href="#DejaVuSans-48" transform="translate(0 0.578125)"/>
      <use xlink:href="#DejaVuSans-5b" transform="translate(59.523438 0.578125)"/>
      <use xlink:href="#DejaVuSans-53" transform="translate(118.703125 0.578125)"/>
      <use xlink:href="#DejaVuSans-52" transform="translate(182.179688 0.578125)"/>
      <use xlink:href="#DejaVuSans-51" transform="translate(243.361328 0.578125)"/>
      <use xlink:href="#DejaVuSans-48" transform="translate(306.740234 0.578125)"/>
      <use xlink:href="#DejaVuSans-51" transform="translate(368.263672 0.578125)"/>
      <use xlink:href="#DejaVuSans-57" transform="translate(431.642578 0.578125)"/>
      <use xlink:href="#DejaVuSans-4c" transform="translate(470.851562 0.578125)"/>
      <use xlink:href="#DejaVuSans-44" transform="translate(498.634766 0.578125)"/>
      <use xlink:href="#DejaVuSans-4f" transform="translate(559.914062 0.578125)"/>
      <use xlink:href="#DejaVuSans-3" transform="translate(587.697266 0.578125)"/>
      <use xlink:href="#DejaVuSans-b" transform="translate(619.484375 0.578125)"/>
      <use xlink:href="#DejaVuSans-5f" transform="translate(658.498047 0.578125)"/>
      <use xlink:href="#DejaVuSans-Oblique-352" transform="translate(692.189453 0.578125)"/>
      <use xlink:href="#DejaVuSans-5f" transform="translate(747.951172 0.578125)"/>
      <use xlink:href="#DejaVuSans-cee" transform="translate(801.125 0.578125)"/>
      <use xlink:href="#DejaVuSans-13" transform="translate(904.396484 0.578125)"/>
      <use xlink:href="#DejaVuSans-11" transform="translate(968.019531 0.578125)"/>
      <use xlink:href="#DejaVuSans-14" transform="translate(999.806641 0.578125)"/>
      <use xlink:href="#DejaVuSans-c" transform="translate(1063.429688 0.578125)"/>
     </g>
    </g>
    <g id="patch_72">
     <path d="M 257.82 73.693281 
L 279.82 73.693281 
L 279.82 65.993281 
L 257.82 65.993281 
z
" style="fill: #d55e00; opacity: 0.4; stroke: #d55e00; stroke-linejoin: miter"/>
    </g>
    <g id="text_19">
     <!-- heavy ($\xi&gt;0.1$) -->
     <g style="fill: #262626" transform="translate(288.62 73.693281) scale(0.11 -0.11)">
      <defs>
       <path id="DejaVuSans-59" d="M 191 3500 
L 800 3500 
L 1894 563 
L 2988 3500 
L 3597 3500 
L 2284 0 
L 1503 0 
L 191 3500 
z
" transform="scale(0.015625)"/>
       <path id="DejaVuSans-5c" d="M 2059 -325 
Q 1816 -950 1584 -1140 
Q 1353 -1331 966 -1331 
L 506 -1331 
L 506 -850 
L 844 -850 
Q 1081 -850 1212 -737 
Q 1344 -625 1503 -206 
L 1606 56 
L 191 3500 
L 800 3500 
L 1894 763 
L 2988 3500 
L 3597 3500 
L 2059 -325 
z
" transform="scale(0.015625)"/>
       <path id="DejaVuSans-21" d="M 678 3150 
L 678 3719 
L 4684 2266 
L 4684 1747 
L 678 294 
L 678 863 
L 3897 2003 
L 678 3150 
z
" transform="scale(0.015625)"/>
      </defs>
      <use xlink:href="#DejaVuSans-4b" transform="translate(0 0.015625)"/>
      <use xlink:href="#DejaVuSans-48" transform="translate(63.378906 0.015625)"/>
      <use xlink:href="#DejaVuSans-44" transform="translate(124.902344 0.015625)"/>
      <use xlink:href="#DejaVuSans-59" transform="translate(186.181641 0.015625)"/>
      <use xlink:href="#DejaVuSans-5c" transform="translate(245.361328 0.015625)"/>
      <use xlink:href="#DejaVuSans-3" transform="translate(304.541016 0.015625)"/>
      <use xlink:href="#DejaVuSans-b" transform="translate(336.328125 0.015625)"/>
      <use xlink:href="#DejaVuSans-Oblique-352" transform="translate(375.341797 0.015625)"/>
      <use xlink:href="#DejaVuSans-21" transform="translate(450.585938 0.015625)"/>
      <use xlink:href="#DejaVuSans-13" transform="translate(553.857422 0.015625)"/>
      <use xlink:href="#DejaVuSans-11" transform="translate(617.480469 0.015625)"/>
      <use xlink:href="#DejaVuSans-14" transform="translate(649.267578 0.015625)"/>
      <use xlink:href="#DejaVuSans-c" transform="translate(712.890625 0.015625)"/>
     </g>
    </g>
   </g>
  </g>
 </g>
 <defs>
  <clipPath id="pd985de3d35">
   <rect x="57.15" y="22.318125" width="362.7" height="221.76"/>
  </clipPath>
 </defs>
</svg>
